<svg xmlns="http://www.w3.org/2000/svg" viewBox="0 0 26.9453 34.0898"><title>html-academy-logo</title><path d="M13.62.0171,13.4727,0,0,1.4121V26.0732L13.4737,34.09l13.43-7.99.042-.0244V1.4121Zm11.4,12.11L13.4951,5.334l-.0009-.104-.087.05-.0878-.0557V5.333L1.9248,12.1181V3.147L13.4737,1.935,25.0205,3.147v8.98Zm-11.6143-5.34L24.9229,13.5l-4.4785,2.64-7.0928-4.2212-.0147,1.4151,5.9043,3.5131-.86.5069-5.0293-2.9922-.0147,1.415,3.8272,2.2749-.7822.5235-3.03-1.7871-.0147,1.413,1.8536,1.0909-1.8,1.081L2.0342,13.622Zm-11.4805,8.34,11.4112,6.791.0166,1.044L5.41,18.2344,5.3955,19.65l7.9785,4.7949.0186,1.0762-7.9736-4.74-.0127,1.4141,8.0205,4.8223.0469.0244L21.6162,22.17l-.0107-5.1768,3.415-2.0361V24.9785L13.4727,31.85,1.9248,24.9785Z"/></svg>
