<svg xmlns="http://www.w3.org/2000/svg" viewBox="0 0 22 20"><g id="Page-1"><g id="Core"><g id="thumb-up"><g id="Shape"><path d="M12.3828,3.646l-.6367,2.9292L11.2188,9H19.9v2c0,.0176,0,.0371.001.0576L17,18H8V8.0288l.0142-.0146L12.3828,3.646M2,10v0M13.2,0,6.6,6.6A1.6778,1.6778,0,0,0,6,8V18a2.0061,2.0061,0,0,0,2,2h9a1.9751,1.9751,0,0,0,1.8-1.2l3-7.1A1.6934,1.6934,0,0,0,21.9,11V9H22a2.0061,2.0061,0,0,0-2-2H13.7l1-4.6V2.1A2.0957,2.0957,0,0,0,14.3,1L13.2,0ZM4,8H0V20H4V8ZM22,9V9Z"/></g></g></g></g></svg>
