<svg xmlns="http://www.w3.org/2000/svg" viewBox="0 0 76.166 68.959" fill="#81b3d2"><path d="M71.9141,46.042H4.2519A4.2647,4.2647,0,0,0,0,50.294v3.4541A4.2654,4.2654,0,0,0,4.2519,58H5.208v1.0371a9.95,9.95,0,0,0,9.9209,9.9219H61.0371a9.9509,9.9509,0,0,0,9.9209-9.9219V58h.9561a4.2647,4.2647,0,0,0,4.2519-4.2519V50.294A4.2641,4.2641,0,0,0,71.9141,46.042ZM67.958,59.0371a6.9293,6.9293,0,0,1-6.9209,6.9219H15.1289A6.929,6.929,0,0,1,8.208,59.0371V58h59.75Zm5.208-5.289A1.2685,1.2685,0,0,1,71.9141,55H4.2519A1.2685,1.2685,0,0,1,3,53.7481V50.294a1.2686,1.2686,0,0,1,1.2519-1.252H71.9141a1.2686,1.2686,0,0,1,1.2519,1.252Z"/><polygon points="16.162 37.856 21.635 41.856 27.112 37.856 32.591 41.856 38.069 37.856 43.548 41.856 49.026 37.856 54.505 41.856 59.985 37.856 65.474 41.856 71.842 37.212 70.074 34.788 65.474 38.144 59.985 34.144 54.505 38.144 49.026 34.143 43.548 38.144 38.069 34.143 32.591 38.144 27.112 34.143 21.636 38.144 16.163 34.142 10.686 38.144 6.093 34.789 4.323 37.211 10.686 41.856 16.162 37.856"/><path d="M70.8877,31.0938c.041-.61.0547-2.6158.0371-3C70.2422,12.4761,55.8037,0,38.083,0S5.9238,12.4761,5.2412,28.0938c-.0171.3842-.0044,2.3891.0386,3ZM38.083,3c16.0313,0,29.15,11.1538,29.8418,25.0938H8.2412C8.9331,14.1538,22.0508,3,38.083,3Z"/><circle cx="38.083" cy="15.042" r="2"/><circle cx="30.083" cy="10.083" r="2"/><circle cx="46.083" cy="10.083" r="2"/></svg>
