<svg xmlns="http://www.w3.org/2000/svg" viewBox="0 0 74.6954 72.3458" fill="#81b3d2"><path d="M29.503,65.3448h16V41.4073h-16V65.3448Zm13.0635-2.9375H32.4415V44.3448h10.125Z"/><path d="M72.62,39.44l2.0752-2.0781-9.9073-9.9121V.47H50.9747V13.6309L37.35,0,0,37.3624l2.0772,2.0781,7.832-7.8321v37.8H5.9717v2.9375h63.875V69.4083H64.7872V31.6075ZM53.9131,3.4083h7.9385V24.5118l-7.9385-7.94Zm7.9375,65.999H12.8467V28.6709L37.3487,4.169,61.8506,28.6709Z"/><path d="M29.753,27.21a7.75,7.75,0,1,0,7.75-7.75A7.7505,7.7505,0,0,0,29.753,27.21Zm7.75-4.9687a4.97,4.97,0,1,1-4.97,4.97A4.97,4.97,0,0,1,37.503,22.2413Z"/><rect x="16.9092" y="41.4073" width="3" height="3.9375"/><rect x="22.8467" y="41.4073" width="3" height="3.9375"/><rect x="16.9092" y="47.4073" width="3" height="3.9375"/><rect x="22.8467" y="47.4073" width="3" height="3.9375"/><rect x="48.8467" y="41.4073" width="3" height="3.9375"/><rect x="54.7842" y="41.4073" width="3" height="3.9375"/><rect x="48.8467" y="47.4073" width="3" height="3.9375"/><rect x="54.7842" y="47.4073" width="3" height="3.9375"/></svg>
