<svg xmlns="http://www.w3.org/2000/svg" viewBox="0 0 459.7539 350.0774"><title>index-intro-text</title><path d="M165.4219,70.001l-.2031.229a6.4466,6.4466,0,0,1-4.52,2.2168L163.52,67.582c1.813-3.1391.144-6.104-2.6792-6.104-2.3028,0-4.0879.92-5.815,3.916l-1.4677,2.562-1.2271,2.0982-.1543.1767c-2.1587,2.5059-4.2617,4.4913-5.5859,4.4913-.6617,0-1.0367-.4615-.3457-1.6412L152.667,61.88h2.4458l.8643-1.44H153.5l2.8218-4.893h-2.9936l-2.8223,4.895h-2.707l-.8638,1.44H149.67l-6.0191,10.4234c-1.2671,2.2168-.374,4.2617,2.044,4.2617,1.7392,0,3.6621-1.3091,5.5122-3.084-.0059,3.8159,5.2969,4.562,8.539.4629h.6612a9.0831,9.0831,0,0,0,6.1338-2.9067A2.57,2.57,0,0,0,165.4219,70.001Zm-6.3921.2031h-.145a1.7688,1.7688,0,0,0-1.7558,1.7851,1.9655,1.9655,0,0,0,.289,1.0088l-.0288.0572c-1.4111,2.4189-4.8384,1.958-3.0532-1.1514L156.61,67.96l1.44-2.4468c2.102-3.5694,4.98-2.1592,3.166.95Z" transform="translate(-0.001)" fill="#766458"/><path d="M206.877,70.001l-.2012.229c-2.16,2.5058-4.9238,4.4912-7.0249,4.4912-1.8437,0-2.938-1.1514-1.5547-3.5694l.2867-.52c1.93.8072,5.5581.4322,7.8042-3.4551l.4321-.749c1.6118-2.7636.0581-4.8369-2.39-4.8369a6.3345,6.3345,0,0,0-5.6148,3.4551L195.7081,70.03l-.1729.1992c-2.1592,2.5039-4.2612,4.49-5.5859,4.49-.6612,0-1.0362-.4609-.3462-1.6406l4.3188-7.5713c1.2949-2.2739.0591-3.916-1.6118-3.916-1.2959,0-2.6792.72-4.1753,2.2744l4.7793-8.32H189.92l-8.354,14.4922-.168.1909c-2.1587,2.5059-4.2607,4.4907-5.5859,4.4907-.6622,0-1.0372-.4609-.3453-1.6406l6.4205-11.2012h2.4467l.8643-1.44h-2.4761l2.8218-4.8931H182.55l-2.8218,4.8951H177.022l-.8637,1.44h2.7348l-6.019,10.4228c-1.2671,2.2173-.3731,4.2623,2.0449,4.2623a6.704,6.704,0,0,0,3.8213-1.627l-.771,1.3379h3.022l4.55-7.916c4.6059-5.7891,6.65-5.0391,5.354-2.8218l-3.8882,6.7671c-1.2666,2.2178-.3731,4.2627,2.0454,4.2627,1.7808,0,3.7568-1.375,5.646-3.2168.145,1.8638,1.6528,3.2168,4.0547,3.2168,3.396,0,6.7661-2.6489,9.2422-5.5288A2.55,2.55,0,0,0,206.877,70.001Zm-5.7012-4.2041c1.729-2.9649,4.7813-2.4771,2.9961.6342l-.4331.7491c-1.438,2.4467-3.3677,2.3906-4.4907,1.9868Z" transform="translate(-0.001)" fill="#766458"/><path d="M316.0469,70.001l-.2011.229a18.7981,18.7981,0,0,1-3.6006,3.2539c.95-2.8511.749-7.2281,2.5927-11.0572l-2.2461-1.2089c-1.2382,1.6992-3.9433,5.6152-6.65,8.7822v.001l-.2.229c-2.1582,2.5058-4.2608,4.4912-5.587,4.4912-.6611,0-1.0351-.4614-.3437-1.6411l6.3916-11.2012h-2.9941l-5.3262,9.3c-2.2744,2.0718-4.03,3.2246-4.6065,2.9648-.748-.3149,0-1.438.375-2.0722L299.4952,61.88H296.5l-4.6953,8.124-.1972.227a6.4516,6.4516,0,0,1-4.5205,2.2173l2.8213-4.8652c1.8125-3.1392.1464-6.104-2.6778-6.104-2.3047,0-4.09.92-5.8154,3.916l-1.47,2.562-1.2266,2.0972-.1543.1777c-2.1582,2.5059-4.9238,4.4912-7.0244,4.4912-1.8428,0-2.9385-1.1513-1.5557-3.5693l.2891-.52c1.9287.8071,5.5576.4321,7.8027-3.4546l.4336-.749c1.61-2.7642.0567-4.8374-2.3916-4.8374a6.3351,6.3351,0,0,0-5.6152,3.455L267.6,70.0322l-.1739.1987c-2.4775,2.8511-4.6064,4.691-6.97,5.6993l6.709-11.459h-1.7568a3.1669,3.1669,0,0,0-3.1387-2.8794,6.6528,6.6528,0,0,0-5.125,3.4551l-2.8711,4.957L254.2657,70l-.2012.23c-2.1582,2.5039-4.2617,4.49-5.5859,4.49-.6621,0-1.0352-.4609-.3457-1.6406l2.9941-5.2412a3.06,3.06,0,0,0-.4326-4.06l-1.6709-2.0171a1.1673,1.1673,0,0,1,.1738-1.7275l-1.5547-1.6992c-1.6992,1.5249-1.8437,3.2251-.7773,4.6069l.26.3462c-1.3242,1.8721-3.1093,4.4038-5.0683,6.709l.0019.0039-.1992.229a6.4607,6.4607,0,0,1-4.5215,2.2168l2.82-4.8657c1.8144-3.1382.1445-6.104-2.6778-6.104-2.3027,0-4.0879.9218-5.8144,3.916l-1.47,2.562-1.2275,2.1011-.1523.1748c-2.4771,2.851-4.607,4.6909-6.9688,5.6992l6.709-11.459H226.8a3.1661,3.1661,0,0,0-3.1387-2.8794,6.6535,6.6535,0,0,0-5.125,3.4551l-4.2031,7.2558c-1.2681,2.2173-.375,4.2623,2.0429,4.2623a5.7082,5.7082,0,0,0,2.8521-1.0079l-.835,1.41c-4.0312,1.2383-6.5649,2.8789-6.5649,5.125,0,2.88,4.4048,3.4844,6.5649-.2007l2.2739-3.9453a18.2437,18.2437,0,0,0,7.18-4.4809c-.021,3.832,5.2935,4.5849,8.54.479h.6611a9.0757,9.0757,0,0,0,6.1338-2.9078h0c1.4375-1.67,2.5615-3.1679,4.95-6.42l.4023.49a1.4686,1.4686,0,0,1,.1739,1.6977l-3.168,5.5c-1.2686,2.2183-.375,4.2632,2.0449,4.2632,1.5186,0,3.1768-.998,4.8018-2.4311a2.3074,2.3074,0,0,0,2.5976,2.4311,5.71,5.71,0,0,0,2.8516-1.0088L257,76.9658c-4.0312,1.2383-6.5625,2.8794-6.5625,5.125,0,2.88,4.4043,3.4834,6.5625-.2007l2.2735-3.9443a18.4437,18.4437,0,0,0,7.3154-4.6167c.1338,1.875,1.6455,3.2358,4.0576,3.2358,2.4375,0,4.8584-1.3667,6.9463-3.2007-.1162,3.92,5.2666,4.7208,8.541.58h.6621a8.3937,8.3937,0,0,0,3.33-.8559c-.8056,2.081-.0635,3.478,1.6494,3.478,1.6416,0,3.4825-1.498,4.9219-2.8789a2.3352,2.3352,0,0,0,2.5625,2.8789c2.4766,0,5.3262-2.6479,7.8047-5.5278l-.002-.001c1.6973-1.959,3.1954-4.0591,4.2618-5.4692-1.1817,3.1079-.5489,8.6943-3.3975,8.6943a1.6673,1.6673,0,0,1-1.4092-1.0942l-1.873.979a3.2654,3.2654,0,0,0,3.2822,2.42,7.4539,7.4539,0,0,0,.834-.06c.0293,0,.06-.0278.0889-.0278,3.0507-.4019,6.0732-2.82,8.3193-5.4409A1.8885,1.8885,0,0,0,316.0469,70.001Zm-42.9824-4.2041c1.7275-2.9649,4.7773-2.4771,2.9922.6342l-.4317.7491c-1.4394,2.4467-3.3691,2.3906-4.4921,1.9868ZM215.8873,81.4028c-.6333,1.1231-1.6412.9512-1.6412.145,0-.7768.7207-1.67,2.9942-2.562Zm1.3828-6.68c-.6621,0-1.0371-.4609-.3462-1.6411L221.1,65.7969c1.6109-2.793,4.8091-2.0728,3.34.6342l-2.273,3.9737C220.3511,73.313,218.5372,74.7231,217.27,74.7231Zm18.3969-4.519h-.1455a1.7691,1.7691,0,0,0-1.7558,1.7851,1.9825,1.9825,0,0,0,.2871,1.0088l-.0274.0572c-1.41,2.4189-4.8374,1.958-3.0527-1.1514l2.2734-3.9438,1.4395-2.4468c2.1035-3.5694,4.98-2.1592,3.168.95Zm18.8272,11.1987c-.6348,1.1231-1.6426.9512-1.6426.145,0-.7768.7207-1.67,2.9942-2.562Zm1.3808-6.68c-.6621,0-1.0351-.4609-.3457-1.6411l4.1758-7.2851c1.6114-2.793,4.8086-2.0728,3.34.6342l-2.2735,3.9737C258.9581,73.313,257.1407,74.7231,255.875,74.7231Zm29.54-4.519H285.27a1.7692,1.7692,0,0,0-1.7559,1.7851,1.9835,1.9835,0,0,0,.2871,1.0088l-.0273.0572c-1.41,2.4189-4.8379,1.958-3.0527-1.1514l2.2734-3.9438,1.4394-2.4468c2.1026-3.5694,4.9795-2.1592,3.168.95Z" transform="translate(-0.001)" fill="#766458"/><rect x="101.4209" y="66.8232" width="28.918" height="1.9566" fill="#766458"/><rect x="328.4209" y="66.8232" width="28.918" height="1.9566" fill="#766458"/><path d="M163.1832,0h7.707l-1.209,44.918H155.1563l-1.9751-18.545-1.9751,18.545H136.6172L135.4712,0h7.6451l.6367,37.1518h.8281L149.3589,0H156.94l4.9062,37.1518h.7647Z" transform="translate(-0.001)" fill="#81b3d3"/><path d="M195.0342,37.1518V44.918h-20.896V0h20.896V7.7H181.7833V18.5439H192.358v7.7H181.7833V37.1518Z" transform="translate(-0.001)" fill="#81b3d3"/><path d="M216.3731,37.1518V44.918H198.09V0h7.646V37.1518Z" transform="translate(-0.001)" fill="#81b3d3"/><path d="M232.6172,28.3608l7.708-1.7968V40.168a4.8047,4.8047,0,0,1-4.7138,4.749H224.1421a4.762,4.762,0,0,1-4.7129-4.749V4.749A4.7209,4.7209,0,0,1,224.1421,0h11.4673a4.7618,4.7618,0,0,1,4.7149,4.749v9.1118l-7.708,1.7964V7.7h-5.543V37.1518h5.543l.0009-8.791Z" transform="translate(-0.001)" fill="#81b3d3"/><path d="M261.0889,0a4.762,4.762,0,0,1,4.7158,4.749v35.42a4.8052,4.8052,0,0,1-4.7158,4.7491H249.6211a4.7632,4.7632,0,0,1-4.7138-4.7491V4.749A4.722,4.722,0,0,1,249.6211,0Zm-2.9931,7.7h-5.544V37.1518h5.544Z" transform="translate(-0.001)" fill="#81b3d3"/><path d="M290.837,0h7.58V44.918h-7.6455V22.8437l-3.0586,11.4224H280.26l-2.9941-11.4224V44.918H269.62V0h7.581l6.8164,21.688Z" transform="translate(-0.001)" fill="#81b3d3"/><path d="M323.1338,37.1518V44.918H302.2383V0h20.8955V7.7H309.8819V18.5439h10.5752v7.7H309.8819V37.1518Z" transform="translate(-0.001)" fill="#81b3d3"/><path d="M44.4668,157.61A20.4551,20.4551,0,0,0,31.565,152.647c-3.5718,0-8.3379,2.0839-8.3379,6.2529,0,4.3682,5.2607,6.0552,8.6357,7.146l4.9644,1.4892c10.4219,3.0767,18.4609,8.337,18.4609,20.4473,0,7.4453-1.7871,15.0879-7.7422,20.1494-5.8549,4.9639-13.6967,7.0479-21.24,7.0479A46.184,46.184,0,0,1,.001,206.6426L8.3389,190.96c4.8652,4.2685,10.6211,7.7421,17.271,7.7421,4.5659,0,9.43-2.2832,9.43-7.5449,0-5.459-7.6431-7.3447-11.812-8.5351-12.208-3.4756-20.249-6.6495-20.249-21.1431,0-15.188,10.8178-25.1118,25.8071-25.1118A51.1914,51.1914,0,0,1,52.212,142.521Z" transform="translate(-0.001)" fill="#fff"/><path d="M91.8321,154.831v12.5059h21.937v16.4795H91.8321v12.8994H114.959v16.48H72.377v-74.84h42.582v16.477H91.8321Z" transform="translate(-0.001)" fill="#fff"/><path d="M129.418,138.354h27.5943c20.8437,0,38.0156,16.3769,38.0156,37.4194,0,21.041-17.271,37.42-38.0156,37.42H129.418Zm19.4551,58.3638H153.24c11.6118,0,21.5386-6.3516,21.5386-20.9424,0-13.4-8.834-20.9434-21.3409-20.9434h-4.5649Z" transform="translate(-0.001)" fill="#fff"/><path d="M286.8741,174.3848c0,24.2187-17.3711,41.2919-41.3936,41.2919-24.0195,0-41.3906-17.0712-41.3906-41.2919,0-22.6319,19.852-38.5127,41.3906-38.5127S286.8741,151.7529,286.8741,174.3848Zm-62.5342.0991c0,12.9048,9.5293,22.3325,21.1406,22.3325,11.6133,0,21.1436-9.43,21.1436-22.3325,0-10.3228-9.5264-19.752-21.1436-19.752C233.8682,154.7319,224.34,164.1621,224.34,174.4839Z" transform="translate(-0.001)" fill="#fff"/><path d="M297.2393,138.354h19.4541l35.6357,45.7573h.1963V138.354h19.4532v74.8393H352.5254l-35.6347-45.8564h-.1973v45.8564H297.2393Z" transform="translate(-0.001)" fill="#fff"/><path d="M407.3458,200.1914l-5.16,13.0019H381.54l28.7851-74.8393h21.2422l28.1875,74.8393H439.01l-4.8623-13.0019Zm13.6005-38.71h-.1992l-8.039,23.8238h16.1777Z" transform="translate(-0.001)" fill="#fff"/><path d="M108.0811,287.7412c7.6577-2.5889,8.2422-12.1807.6929-12.1807-2.0791,0-4.5591,1.459-6.272,4.4483L92.29,297.66a14.72,14.72,0,0,1-1.458,2.15c-2.626-3.6093-1.86-9.0058,1.8227-11.3769l-1.5317-1.9346c-7.95,5.0694-5.6162,19.6924,7.6592,19.6924C110.1241,306.1934,115.3751,292.5918,108.0811,287.7412ZM98.709,303.2754a10.927,10.927,0,0,1-5.47-1.3115,19.7394,19.7394,0,0,0,1.896-2.6983l6.3814-11.0508,1.021.1084C111.4371,290.1855,107.899,303.2754,98.709,303.2754Zm4.084-17.2852,3.063-5.2519c2.771-4.7754,6.3091-1.9688,4.4121,1.6045C108.8121,285.0781,106.6592,285.917,102.793,285.99Z" transform="translate(-0.001)" fill="#fff"/><path d="M140.1612,300.0019c-.6289,2.2481.5718,4.0762,3.146,4.0762,1.5307,0,3.4277-.9844,5.25-2.4785.1841,1.459,1.3511,2.4785,3.2827,2.4785,2.02,0,4.2344-1.3945,6.3931-3.3574-.42,2.0488.541,3.3574,2.41,3.3574,2.08,0,4.4141-1.8965,6.2359-3.6465-.3648,2.043.84,3.6465,3.246,3.6465,3.1373,0,6.7471-3.3535,9.8829-7.0019a1.5633,1.5633,0,0,0-.1006-.1514c2.0967-2.4385,3.9458-5.0264,5.2685-6.7764-1.4956,3.9375-.6928,11.0137-4.3047,11.0137a2.1193,2.1193,0,0,1-1.7871-1.3867l-2.3711,1.24a4.1351,4.1351,0,0,0,4.1573,3.0625c.3647,0,.6919-.0371,1.0581-.0722.0366,0,.0727-.0352.1089-.0352,2.7856-.3691,5.55-2.0645,7.9428-4.2256.0581,2.4951,1.9942,4.333,5.145,4.333,4.3028,0,8.57-3.3535,11.7071-7.0019a3.2874,3.2874,0,0,0-1.4219-1.3125l-.2554.2929c-2.7348,3.1719-6.2358,5.6875-8.8969,5.6875-2.334,0-3.7207-1.459-1.97-4.5215l.3648-.6562c2.4424,1.0205,7.0381.5469,9.8833-4.377l.5469-.9472c2.0419-3.502.0727-6.127-3.0259-6.127a8.02,8.02,0,0,0-7.1114,4.375l-3.6835,6.3184c-.0352-.0117-.07-.0371-.104-.0459l-.2554.292a23.6974,23.6974,0,0,1-4.5591,4.1211c1.2031-3.6094.9482-9.1524,3.2822-14.0039l-2.8442-1.5313c-1.5679,2.15-4.9956,7.11-8.4248,11.1221.0332.0459.0742.0908.1108.1377l-.1357.1543c-2.7349,3.1719-5.397,5.6875-7.0752,5.6875-.8379,0-1.312-.5821-.438-2.0781l8.0962-14.1875h-3.793l-6.7471,11.7793c-2.8808,2.6259-5.104,4.0839-5.8349,3.7558-.9473-.4,0-1.8223.4751-2.625l7.4018-12.91h-3.7929l-6.0362,10.4462a2.19,2.19,0,0,0-.288-.1621l-.2549.292c-2.7349,3.1719-5.397,5.6875-7.0752,5.6875-.8379,0-1.3115-.582-.438-2.0781l6.1274-10.7227h-2.1523a3.9413,3.9413,0,0,0-3.9751-3.83c-2.042,0-4.8867,1.6054-6.4907,4.3769l-3.8462,6.6367a2.8486,2.8486,0,0,0-.5767-.3642l-.2554.292c-2.7348,3.1718-6.2358,5.6875-8.8969,5.6875-2.334,0-3.7207-1.459-1.9707-4.52l3.9018-6.7823c2.188-3.7568,6.0542-3.1367,3.791.8008l-.5468.9492h3.101l.5469-.9492c2.042-3.5.0728-6.1269-3.0259-6.1269a8.02,8.02,0,0,0-7.1113,4.3769l-3.77,6.4668a2.4078,2.4078,0,0,0-.3477-.1943l-.2553.292c-2.7349,3.1718-6.2359,5.6875-8.897,5.6875-2.335,0-3.7207-1.459-1.9707-4.52l.3647-.6573c2.4429,1.0215,7.0391.5469,9.8833-4.375l.5469-.9492c2.042-3.5.0728-6.1269-3.0273-6.1269a8.02,8.02,0,0,0-7.11,4.3769l-3.9761,6.8184c-2.3706,4.0488-.3276,7.7676,4.1572,7.7676,3.3409,0,6.6568-2.0225,9.4419-4.6348-.0981,2.6465,1.8653,4.6348,5.1412,4.6348C134.4332,304.0781,137.5088,302.3379,140.1612,300.0019Zm58.0288-9.5625c2.188-3.7558,6.0542-3.1367,3.791.8018l-.5469.9482c-1.8222,3.1-4.2671,3.0264-5.688,2.5157Zm-54.1909,9.2266,5.2881-9.2266c2.0419-3.539,6.09-2.6269,4.229.8018l-2.9532,5.18c-2.2968,3.6084-4.56,5.3232-6.1269,5.3232C143.5992,301.7441,143.1241,301.1611,143.9991,299.666Zm-24.1841-9.2266c2.188-3.7558,6.0542-3.1367,3.791.8018l-.5469.9482c-1.8222,3.1-4.2671,3.0264-5.688,2.5157Z" transform="translate(-0.001)" fill="#fff"/><path d="M248.3985,304.0781c4.3037,0,8.5723-3.3535,11.707-7.0019a3.2711,3.2711,0,0,0-1.4219-1.3125l-.2539.2929c-2.7363,3.1719-6.2363,5.6875-8.9,5.6875-2.3339,0-3.7207-1.459-1.9707-4.5215l.3653-.6562c2.4443,1.0205,7.0381.5469,9.8828-4.377l.5469-.9472c2.0429-3.502.0742-6.127-3.0264-6.127a8.0234,8.0234,0,0,0-7.11,4.375l-3.6933,6.3369c-.0371-.0185-.0762-.0478-.1123-.0634l-.2559.2929c-2.7344,3.1719-5.3955,5.6875-7.0742,5.6875-.8389,0-1.3115-.583-.4385-2.0791l5.4707-9.5908c1.6416-2.8808.0723-4.9609-2.0429-4.9609-1.6426,0-3.3926.9121-5.2871,2.8818l6.0537-10.54h-3.793l-10.6968,18.56a2.4291,2.4291,0,0,0-.4341-.2519l-.2558.292c-2.7354,3.1728-5.396,5.6884-7.0752,5.6884-.8379,0-1.312-.583-.438-2.0791l8.1328-14.1865h3.1011l1.0947-1.8242H227.336l3.5742-6.1992h-3.793l-3.5742,6.1992h-3.4277l-1.0943,1.8242h3.4629l-7.622,13.2031c-1.604,2.8086-.4737,5.3965,2.5893,5.3965,1.8848,0,3.9409-1.2168,5.9619-2.9746l-1.5039,2.6094h3.83l5.7617-10.0293c5.835-7.33,8.4248-6.3819,6.7832-3.5742l-4.9228,8.5713c-1.6045,2.8076-.4746,5.3955,2.5888,5.3955,2.3047,0,4.8643-1.8116,7.3038-4.2207C243.3653,302.2969,245.295,304.0781,248.3985,304.0781Zm3.0635-13.6387c2.1884-3.7558,6.0556-3.1367,3.7929.8018l-.5468.9482c-1.8243,3.1-4.2686,3.0264-5.6905,2.5157Z" transform="translate(-0.001)" fill="#fff"/><path d="M363.417,295.7656l-.2558.291c-2.7315,3.1719-5.3955,5.6885-7.0742,5.6885-.8379,0-1.3116-.583-.4385-2.0791l12.8379-22.209h-3.793l-5.5791,9.628a4.1128,4.1128,0,0,0-3.4658-1.97c-2.043,0-4.8867,1.6045-6.4912,4.376l-3.7119,6.4053a2.3419,2.3419,0,0,0-.2354-.1328l-.2559.2929c-2.7333,3.1719-5.3955,5.6875-7.0742,5.6875-.84,0-1.3115-.583-.4384-2.0791l5.47-9.5908c1.6435-2.8808.0732-4.9609-2.041-4.9609-1.6436,0-3.3545.875-5.252,2.8457l1.4219-2.4785h-3.793l-6.0615,10.4863a2.5737,2.5737,0,0,0-.36-.2031l-.2568.2929c-2.7334,3.1719-5.3955,5.6875-7.0732,5.6875-.8379,0-1.3116-.583-.4385-2.0791l6.1269-10.7216h-2.1513a3.9421,3.9421,0,0,0-3.9756-3.83c-2.043,0-4.8887,1.6045-6.4922,4.375l-3.666,6.33-.207.2343c-2.7334,3.1719-5.3956,5.6875-7.0733,5.6875-.8389,0-1.3115-.582-.4385-2.0781l3.793-6.6367c1.3125-2.2988.6914-3.6465-.5469-5.1426l-2.1152-2.5537a1.4791,1.4791,0,0,1,.22-2.1885l-1.97-2.15c-2.1514,1.9336-2.334,4.084-.9854,5.835l.33.4375c-1.6787,2.3711-3.9394,5.58-6.4209,8.4971a3.42,3.42,0,0,0,.2588.3212c-3.125,3.5928-5.7812,5.918-8.7627,7.19l4.8125-8.2422H286l-.4.6582c-2.0059,3.5371-4.3047,6.0537-7.2579,6.0537-2.59,0-3.0615-2.5889-.8027-6.4551l1.0586-1.8594a13.6179,13.6179,0,0,0,2.15.1827c13.4941,0,20.0215-18.0508,8.1348-18.0508-2.08,0-4.5606,1.459-6.2735,4.4482l-5.9072,10.1748a6.1055,6.1055,0,0,1-3.3916-5.3965,6.0321,6.0321,0,0,1,2.4414-4.7763l-1.2383-2.2256a8.3585,8.3585,0,0,0,.875,14.624l-1.1308,1.97c-2.6621,4.5957-2.1875,9.7,3.1738,9.7a7.6049,7.6049,0,0,0,4.1211-1.2041l-.9863,1.7149c-5.1407,1.5664-8.3135,3.6465-8.3135,6.49,0,3.6465,5.58,4.4131,8.3135-.2549l2.9179-4.9961c3.94-1.2392,7.8057-3.9384,11.9639-8.7519a2.3045,2.3045,0,0,0-.2363-.3565c1.6845-1.9785,3.1132-3.8886,5.9716-7.7753l.51.621a1.8627,1.8627,0,0,1,.2188,2.1514L297.9,298.68c-1.6054,2.8066-.4746,5.3955,2.59,5.3955,1.9062,0,3.9883-1.2442,6.0332-3.0361-.0449,1.7451,1.1474,3.0361,3.31,3.0361,1.5313,0,3.4278-.9844,5.25-2.4795.1836,1.459,1.3516,2.4795,3.2832,2.4795,1.8164,0,3.7911-1.13,5.7422-2.7852l-1.3984,2.4209h3.8281l5.7988-10.1035c5.7989-7.2558,8.3887-6.3086,6.7461-3.5l-4.9218,8.57c-1.6036,2.8086-.4747,5.3965,2.5878,5.3965,2.0176,0,4.2266-1.3887,6.3809-3.3457-.2012,1.9,1.0078,3.3457,3.2949,3.3457,1.5313,0,3.4278-.9844,5.252-2.48.1826,1.46,1.3506,2.48,3.2812,2.48,3.1368,0,6.7461-3.3545,9.8828-7.0019A3.3,3.3,0,0,0,363.417,295.7656Zm-77.9619-14.1514c1.1309-1.9326,2.3711-2.7714,3.43-2.7714,6.0176,0,1.7871,12.2529-8.1328,12.2529h-.7656Zm-8.0586,28.5909c-.8007,1.4218-2.0781,1.2041-2.0781.1836,0-.9844.875-2.1143,3.793-3.2461Zm39.6924-13.7842c-2.2988,3.6084-4.56,5.3232-6.1269,5.3232-.84,0-1.3116-.583-.4385-2.0791l5.2871-9.2275c2.043-3.5371,6.09-2.625,4.23.8027Zm36.7022-.22c-2.2989,3.7558-4.6328,5.5429-6.2364,5.5429-.8379,0-1.3115-.583-.4375-2.0791l5.2871-9.2275c2.043-3.5371,6.09-2.625,4.23.8027h.0352Z" transform="translate(-0.001)" fill="#fff"/><path d="M236.7129,331.7637l-.2548.2929c-2.7334,3.1719-5.3956,5.6885-7.0743,5.6885-.84,0-1.312-.583-.438-2.0791l5.4712-9.5908c1.6416-2.8809.0713-4.96-2.0429-4.96-1.6416,0-3.354.875-5.251,2.8448l1.4219-2.4786h-3.793l-6.1108,10.5733a2.7283,2.7283,0,0,0-.4844-.291l-.2559.2929a8.181,8.181,0,0,1-5.7251,2.8086l3.5733-6.1631c2.2968-3.9765.1831-7.73-3.3921-7.73-2.918,0-5.1778,1.167-7.3672,4.96l-1.86,3.2451-1.6259,2.7813a2.4983,2.4983,0,0,0-.3428-.1924l-.2554.293c-3.1367,3.6084-5.7988,5.9424-8.7886,7.2217l10.3946-17.7969h-3.793l-6.709,11.67c-2.918,2.6973-5.1787,4.1924-5.9077,3.8643-.9482-.3994,0-1.8223.4741-2.625l7.4029-12.9092h-3.793l-6.0513,10.47a2.53,2.53,0,0,0-.332-.1875l-.2549.293c-2.7349,3.1728-5.397,5.6885-7.0747,5.6885-.8384,0-1.312-.583-.438-2.0791l5.47-9.5909c1.6421-2.8808.0733-4.96-2.042-4.96-1.6411,0-3.3549.875-5.2509,2.8447l1.4228-2.4785h-3.7939l-6.062,10.4853a2.6192,2.6192,0,0,0-.36-.2031l-.2549.293c-2.7344,3.1728-5.396,5.6885-7.0752,5.6885-.8379,0-1.312-.583-.438-2.0791l6.128-10.7207H161.627a3.9425,3.9425,0,0,0-3.9761-3.83c-2.041,0-4.8867,1.6045-6.49,4.3769l-3.918,6.7627a2.1649,2.1649,0,0,0-.831-.49l-.2554.293c-2.7349,3.1728-6.09,5.6884-9.8477,5.6884-2.5883,0-4.1562-2.5888-1.896-6.455l1.0577-1.8594a13.6406,13.6406,0,0,0,2.1513.1846c4.0479,0,8.6441-2.08,11.6338-7.295a10.5124,10.5124,0,0,0,1.5313-5.1045c0-3.4287-2.2251-5.6513-5.0323-5.6513-2.0791,0-4.5591,1.459-6.2719,4.4482l-5.9082,10.1758a6.1108,6.1108,0,0,1-3.3926-5.3975,6.0267,6.0267,0,0,1,2.4428-4.7763l-1.24-2.2256a8.359,8.359,0,0,0,.875,14.624l-1.13,1.9707c-2.6611,4.5957-1.0937,9.6992,4.2671,9.6992,4.2417,0,7.354-1.8886,9.9688-4.372-.8257,2.3837.374,4.372,3.0591,4.372,1.5322,0,3.4282-.9843,5.2519-2.4785.1821,1.459,1.35,2.4785,3.2813,2.4785,1.8159,0,3.7919-1.1289,5.7417-2.7832l-1.398,2.42h3.8291l5.7979-10.1025c5.7993-7.2578,8.3891-6.31,6.748-3.5019l-4.9228,8.5673c-1.6041,2.81-.4742,5.3965,2.5888,5.3965,2.041,0,4.2822-1.4248,6.4654-3.4228-.4551,2.0859.5078,3.4228,2.3969,3.4228,1.8238,0,3.9009-1.5312,5.6157-3.0625l-2.0791,3.5742c-5.1416,1.53-8.3505,3.6465-8.3505,6.49,0,3.6465,5.58,4.4131,8.3129-.2549l2.917-4.9961a23.92,23.92,0,0,0,9.5621-6.1953c-.523,5.2969,6.5327,6.5049,10.7866,1.126h.8384a11.0748,11.0748,0,0,0,4.9526-1.4551l-2.55,4.41h3.83l5.7978-10.1025c5.7988-7.2578,8.39-6.31,6.7471-3.502l-4.9229,8.57c-1.604,2.81-.4751,5.3964,2.59,5.3964,3.1377,0,6.7461-3.3544,9.8828-7.0019A3.2857,3.2857,0,0,0,236.7129,331.7637Zm-94.3867-14.1495c1.13-1.9335,2.3706-2.7714,3.4278-2.7714,1.4228,0,2.0791.9472,2.0791,2.3339,0,3.5381-4.3033,9.919-10.211,9.919h-.7661Zm13.355,14.8067c-2.2974,3.6094-4.5591,5.3232-6.127,5.3232-.8383,0-1.312-.583-.4379-2.0791l5.2876-9.2275c2.0419-3.5361,6.09-2.625,4.229.8037Zm28.8511,13.7832c-.8032,1.4228-2.0791,1.2041-2.0791.1846,0-.9844.9121-2.1143,3.8291-3.2461ZM210.06,332.02h-.1841a2.2423,2.2423,0,0,0-2.2251,2.2627,2.47,2.47,0,0,0,.3653,1.2744l-.0371.0733c-1.7862,3.0625-6.127,2.4795-3.8653-1.459l2.8814-4.9961,1.8227-3.1006c2.6631-4.5215,6.3091-2.7344,4.0122,1.2041Z" transform="translate(-0.001)" fill="#fff"/><path d="M324.6211,333.0771a2.3952,2.3952,0,0,0-1.4218-1.3125l-.2559.293a23.6206,23.6206,0,0,1-4.56,4.12c1.2032-3.6093.9473-9.1523,3.2813-14.0039l-2.8467-1.5322c-1.5654,2.1514-4.9951,7.1113-8.4238,11.123a.1936.1936,0,0,0,.0215.0254c-.0157-.0068-.0313-.0205-.0469-.0254l-.2539.293c-2.7363,3.1719-5.3965,5.6885-7.0762,5.6885-.8379,0-1.6406-.8389-1.6406-2.5527V333.625c2.6621.3281,5.4707-1.4229,7.2578-4.5215l1.0205-1.75c3.5352-6.0537-2.2266-8.06-6.0918-4.52l5.3955-9.373h-3.793l-10.8154,18.7666a3.0606,3.0606,0,0,0-.6924-.459l-.2568.2929c-2.7334,3.1729-6.2354,5.6885-8.8975,5.6885-2.3339,0-3.7187-1.459-1.9687-4.5215l3.8994-6.7822c2.1885-3.7568,6.0547-3.1367,3.793.8027l-.5469.9483h3.1016l.5478-.9483c2.041-3.5009.0713-6.1269-3.0273-6.1269a8.02,8.02,0,0,0-7.1114,4.3769l-3.7324,6.4043a2.1811,2.1811,0,0,0-.2334-.1338l-.2568.293c-2.7334,3.1729-5.3955,5.6885-7.0733,5.6885-.84,0-1.3115-.583-.4384-2.0791l8.0966-14.1856h-3.7939l-6.7451,11.7784c-2.8838,2.625-5.1045,4.0839-5.836,3.7558-.9472-.3994,0-1.8222.4747-2.625l7.4023-12.9092h-3.793l-7.3652,12.7432a22.6686,22.6686,0,0,1-2.4492,1.9522c1.2031-3.6094.9472-9.1524,3.2812-14.004l-2.8437-1.5322c-1.5684,2.1514-10.3213,13.75-13.75,17.7617a5.4976,5.4976,0,0,0,1.4228,1.3125c2.15-2.48,9.3721-11.7793,10.7227-13.5654-1.4961,3.9375-.6934,11.0137-4.3047,11.0137a2.1185,2.1185,0,0,1-1.7871-1.3867l-2.37,1.2392a4.1344,4.1344,0,0,0,4.1572,3.0625,10.4265,10.4265,0,0,0,1.0586-.0722c.0351,0,.0723-.0362.1074-.0362a13.1692,13.1692,0,0,0,5.6309-2.3789,2.2891,2.2891,0,0,0,2.51,2.4873c2.0762,0,4.4121-1.8965,6.2344-3.6465-.3633,2.043.8379,3.6465,3.2461,3.6465,2.3555,0,4.9785-1.8935,7.4668-4.38.0332,2.52,1.9746,4.38,5.1445,4.38,3.0782,0,6.1377-1.72,8.7754-4.0312l-2.1133,3.6679h3.83l4.34-7.55v3.0264c0,3.2441.6191,4.8867,3.6826,4.8867,3.1367,0,6.748-3.3545,9.8847-7.0019-.0058-.0108-.0185-.0215-.0205-.0342.0157.0127.0313.0234.0469.0342,2.1524-2.48,4.0488-5.1426,5.3955-6.93-1.4931,3.9385-.69,11.0146-4.3027,11.0146a2.12,2.12,0,0,1-1.7871-1.3867l-2.3711,1.2393a4.136,4.136,0,0,0,4.1582,3.0625,10.5837,10.5837,0,0,0,1.06-.0723c.0341,0,.0693-.0361.1064-.0361C317.9473,339.458,321.7774,336.3965,324.6211,333.0771Zm-25.1875-2.9912,1.0938-1.8955c4.3769-6.0918,7.3672-4.4131,6.0176-2.1152l-1.8223,3.1357C303.5889,331.1807,300.2715,332.5664,299.4336,330.0859Z" transform="translate(-0.001)" fill="#fff"/><path d="M324.4747,335.665a2.1807,2.1807,0,0,0-2.19,2.2256,2.1489,2.1489,0,0,0,2.19,2.1885,2.1808,2.1808,0,0,0,2.2246-2.1885A2.2126,2.2126,0,0,0,324.4747,335.665Z" transform="translate(-0.001)" fill="#fff"/><polygon points="324.655 334.171 328.485 334.171 340.372 313.456 336.581 313.456 324.655 334.171" fill="#fff"/><path d="M80.4122,277.581a2.4669,2.4669,0,0,1-.169.8789,2.3974,2.3974,0,0,1-.5073.7969,2.6022,2.6022,0,0,1-.8286.5742,2.6492,2.6492,0,0,1-1.1.2207,3.4389,3.4389,0,0,1-1.3032-.2529,2.9508,2.9508,0,0,1-1.064-.7285,3.1021,3.1021,0,0,1-.5747-1.0488,4.0129,4.0129,0,0,1-.2031-1.2852,5.9185,5.9185,0,0,1,1.7587-4.2969,5.7678,5.7678,0,0,1,.8462-.6933,9.1243,9.1243,0,0,1,.896-.541c.2808-.1465.523-.2637.7271-.3536s.3276-.1464.373-.17l1.3531,1.9961c-.2491.09-.5245.209-.8291.3545a4.6337,4.6337,0,0,0-.8614.54,2.9487,2.9487,0,0,0-.6777.7617,2.1543,2.1543,0,0,0-.3042,1.0156,2.7409,2.7409,0,0,1,1.7251.5752A1.9693,1.9693,0,0,1,80.4122,277.581Zm7.8657,0a2.419,2.419,0,0,1-.17.8789,2.3772,2.3772,0,0,1-.5059.7959,2.578,2.578,0,0,1-.83.5743,2.6614,2.6614,0,0,1-1.1.2207,3.4337,3.4337,0,0,1-1.3017-.253,2.94,2.94,0,0,1-1.065-.7275,3.1465,3.1465,0,0,1-.5742-1.0488,4.052,4.052,0,0,1-.2031-1.2852,5.9159,5.9159,0,0,1,1.7593-4.2969,5.6024,5.6024,0,0,1,.8466-.6923,9.03,9.03,0,0,1,.896-.5411c.2823-.1455.5244-.2646.7281-.3545.2041-.0878.3271-.1455.372-.1679L88.483,272.68c-.2481.09-.523.209-.8282.3535a4.5767,4.5767,0,0,0-.8628.541,2.8793,2.8793,0,0,0-.6757.7607,2.13,2.13,0,0,0-.3052,1.0166,2.7412,2.7412,0,0,1,1.7251.5743A1.969,1.969,0,0,1,88.2779,277.581Z" transform="translate(-0.001)" fill="#fff"/><path d="M353.44,336.5234a2.4572,2.4572,0,0,1,.168-.8808,2.4,2.4,0,0,1,.5078-.795,2.5846,2.5846,0,0,1,.8281-.5742,2.6607,2.6607,0,0,1,1.1-.2207,3.4533,3.4533,0,0,1,1.3028.253,2.9233,2.9233,0,0,1,1.0644.7294,3.1109,3.1109,0,0,1,.5762,1.0479,4.0559,4.0559,0,0,1,.2031,1.2861,5.9095,5.9095,0,0,1-1.76,4.295,5.662,5.662,0,0,1-.8486.6933,8.1124,8.1124,0,0,1-.8955.541c-.2813.1455-.5225.2657-.7285.3545-.2031.0889-.3242.1465-.3711.17l-1.3535-1.9961c.248-.09.5224-.2089.8281-.3544a4.6035,4.6035,0,0,0,.8623-.5411,2.9171,2.9171,0,0,0,.6768-.7627,2.1255,2.1255,0,0,0,.3046-1.0136,2.7307,2.7307,0,0,1-1.7246-.5762A1.973,1.973,0,0,1,353.44,336.5234Zm-7.8672,0a2.4217,2.4217,0,0,1,.17-.8808,2.3945,2.3945,0,0,1,.5059-.795,2.5947,2.5947,0,0,1,.83-.5742,2.6571,2.6571,0,0,1,1.1-.2207,3.46,3.46,0,0,1,1.3027.253,2.94,2.94,0,0,1,1.0645.7294,3.142,3.142,0,0,1,.5742,1.0479,4,4,0,0,1,.2031,1.2861,5.9184,5.9184,0,0,1-1.7578,4.295,5.7412,5.7412,0,0,1-.8467.6933,9.3367,9.3367,0,0,1-.8955.541c-.2812.1455-.5234.2657-.7295.3545-.2021.0889-.3252.1465-.37.17l-1.3555-1.9961c.25-.09.5254-.2089.83-.3544a4.5641,4.5641,0,0,0,.8613-.5411,2.9389,2.9389,0,0,0,.6778-.7627,2.1592,2.1592,0,0,0,.3047-1.0136,2.7457,2.7457,0,0,1-1.7266-.5762A1.9692,1.9692,0,0,1,345.5723,336.5234Z" transform="translate(-0.001)" fill="#fff"/></svg>
