<svg id="Layer_1" data-name="Layer 1" xmlns="http://www.w3.org/2000/svg" viewBox="0 0 101.668 83.9839"><title>logo-mobile</title><g id="Layer_2" data-name="Layer 2"><g id="Layer_2-2" data-name="Layer 2"><polygon points="0 0 50.581 59.054 101.668 0 0 0" fill="#23a9e1"/><path d="M50.9189,0H0V22.4629l50.582,61.521L50.92,83.56,101.668,23.166V0Zm0,57.05-.3379.41L3.708,1.7764H98.126Z" fill="#491213"/><path d="M50.581,57.46l.3379-.41L78.4951,24.7637c-6.9121.9492-11.8633,6.0761-18.6045,4.955-3.3955-.5634-3.498-2.5136-4.4687-4.455-.7461-1.4932-1.9385-1.3028-3.4864-1.91-1.4433-.5644-2.2773-1.7383-5.1621-1.0605-2.5283.5918-2.8086,4.5175-5.9531,4.2929-1.6885-.1211-1.8106-2.498-4.2441-5.539-6.3008-7.5713-12.1573-6.5235-16.2452.4746Z" fill="#491213"/><path d="M23.2793,32.248a2.8082,2.8082,0,0,1,.8056,2.1163c-.0595.5791-.9365,1.55-.2705,1.8466q1.1222-1.4165,2.2422-2.8339c-.6015-.1514-5.3652-5.8487-5.4414-6.4727q-1.5791.8671-3.1592,1.7344c.1641.66,1.295.0049,1.8545.0459a2.9218,2.9218,0,0,1,1.9532,1.1513c-1.73,1.4493-5.9317,5.0176-6.375,5.09-.2266.0371-1.0889-.6006-1.1016-.0547-.0068.2617.8525,1.0137,1.0146,1.209q1.1148,1.327,2.2286,2.6523c.6191-.2812-.1084-.73.205-1.2422.2344-.375,4.9043-4.2666,6.044-5.2422Z" fill="#fff"/><path d="M18.0068,25.2686c.4424-.0948.6231.4335.957-.0557q-1.2216-1.46-2.4472-2.918c-.3721-.4414-.8408-.916-.707.0186.0888.63-6.1133,5.664-6.4932,5.8193-.4785.1973-.7578-.416-1.1084.0977Q9.3037,29.5341,10.4,30.8379c.2461.293.4775.6123.747.8828.3389.3389.2081-.6719.2247-.5859-.0918-.5118.5263-.9473.8544-1.2276A60.4369,60.4369,0,0,1,18.0068,25.2686Z" fill="#fff"/><path d="M9.2353,24.3516a3.2153,3.2153,0,0,1-4.207-2.042c-.543-1.835.6143-3.7569,2.0713-4.8018,1.4385-1.0312,3.5889-.9687,4.373.8379a3.6122,3.6122,0,0,1-.0947,2.5029c-.16.5059-.5976,1,.0567,1.2881q1.289-1.6436,2.581-3.2851c-1.0557-.6329-1.5185-1.6836-2.3008-2.5957a5.8682,5.8682,0,0,0-3.4814-2.2832c-2.87-.4063-5.5742,2.5556-5.7949,5.2441a5.7558,5.7558,0,0,0,1.2461,4.0019c.75.9942,1.8671,1.6231,2.4355,2.754a22.4636,22.4636,0,0,0,3.2852-1.2559,1.5592,1.5592,0,0,0-.17-.3652Z" fill="#fff"/><path d="M48.5361,60.7593c-1.15-.7676-4.0254-4.69-4.5742-5.34-.1074-.1308-.22-.2617-.3281-.3925a2.2157,2.2157,0,0,0-.2461.1894c-.1739.1465.1347.5742-.0528.8652-.7929,1.2383-5.7587,4.98-6.0166,5.1621-.5546.3848-1.164-.1582-1.4873.3145a44.4349,44.4349,0,0,0,3.02,3.582c.48.0782.1465-.8144.2109-1A31.5554,31.5554,0,0,1,42.61,60.9292c.336-.2813.6885.4258.8877.7227a1.7624,1.7624,0,0,1,.2989,1.5683c-.1172.3711-.7168.92-.25,1.1738.6191-.7226,2.36-2.7539,2.6123-3.0488.2529-.293-.5655-.0371-.4688-.0859a.9168.9168,0,0,1-1.0635-.0293c-.0966-.0684-1.0879-1.0821-.99-1.166a4.641,4.641,0,0,1,1.5176-1.1c.8633-.2129,1.582,1.5156,1.709,2.1289a3.453,3.453,0,0,1-.0752,1.75c-.1231.3867-.4864.6972.0175.93q1.0694-1.4589,2.1329-2.92a.6753.6753,0,0,1-.4024-.0937C48.4082,60.6753,48.6748,60.83,48.5361,60.7593Z" fill="#fff"/><path d="M38.3115,56.6284a5.4776,5.4776,0,1,0-7.793-1.0664,5.4156,5.4156,0,0,0,7.793,1.0664C39.4678,55.6538,38.2119,56.6987,38.3115,56.6284Zm-.4648-4.7519a7.4413,7.4413,0,0,1-3.7325,3.666c-1.8173.7148-3.1-.8262-2.3584-2.5528a7.4551,7.4551,0,0,1,3.7354-3.666c1.8516-.7339,3.0664.8457,2.3555,2.5528C37.4658,52.7651,37.917,51.7065,37.8467,51.8765Z" fill="#fff"/><path d="M31.8672,42.0205c.4756.0615.9267.5508,1.2685.043q-1.11-1.3183-2.2275-2.6377c-.5957.2685.0478.55-.1944.9717-.2441.4257-2.5595.78-3.1757.89a15.9707,15.9707,0,0,1,1.1572-2.835c.543-.4443.8838.4327,1.2832-.1406q-1.374-1.626-2.7441-3.2529c-.3106-.3662-.5586-1.0283-.98-.68A8.3854,8.3854,0,0,1,26.167,36.11c-.086.2354-.9365,3.64-1.9268,4.4717a21.4436,21.4436,0,0,1-2.7021,2.0957c-.541.1885-.8243-.5976-1.22-.0371q1.2451,1.48,2.49,2.9571c.125.1484.6025.8632.7676.8925.5214.0957.0595-.8925.1132-1.0859.15-.43,2.5-2.7188,3.4961-2.8574a19.26,19.26,0,0,1,4.6817-.5264C32.206,42.0635,31.5166,41.9775,31.8672,42.0205Z" fill="#fff"/><path d="M69.206,52.4487a4.985,4.985,0,0,1,.2149,2.01c-.1074.873-.98,2.9238-2.1738,2.34a18.3962,18.3962,0,0,1-3.1885-2.5527c.8027-.9355,1.5078-1.748,2.8545-1.2949.37.123.6884-.0352.2988-.2617-.4043-.2344-3.1133-1.9649-3.2607-1.7989-.2706.3106.5273.8672.2216,1.4727a6.9966,6.9966,0,0,1-.9326,1.2187c-.7207-.6074-1.9238-1.2519-1.0566-2.2558a3.6827,3.6827,0,0,1,2.0976-1.3418c.5645-.1133,1.8409.3887,2.0069-.2246q-1.6333-.7823-3.2588-1.564c.1767.7983-3.35,4.523-4.1309,5.4624-.1123.1387-.6582.6094-.664.7988-.01.4278.6211.0957.6562.084.4863-.1816,6.8164,5.1074,6.9727,5.4707.1005.2813-.2207.5742-.0284.73-.0107-.01.2286.2168.2539.1855.3907-.4687,4.5206-5.9765,5.3731-6.2168-.793-1.2148-1.5879-2.4316-2.3672-3.6523C68.5049,51.3159,69.0742,52.0073,69.206,52.4487Z" fill="#fff"/><path d="M63.0439,59.1519c-2.0761-1.34-5.5967,1.2792-6.125,1.5312-1.039.49-1.789-.543-1.25-1.502a2.7725,2.7725,0,0,1,2.3106-1.289c.2754-.0176,1.3506.1973,1.459.0254.1289-.2031.2275-.2227.041-.3477q-1.2818-.8671-2.5655-1.7324c-.1767,1.0566-1.3857,1.7285-2.0761,2.4395a4.7093,4.7093,0,0,0-1.52,3.1562,3.029,3.029,0,0,0,1.6767,2.66,3.3066,3.3066,0,0,0,3.3233-.51,19.007,19.007,0,0,1,1.9238-1.1719c.9961-.4668,2.3057-.0625,1.9531,1.27a3.5892,3.5892,0,0,1-2.4033,2.34,3.2909,3.2909,0,0,1-1.873-.09c-.4327-.1406-.9922-.7343-1.23-.1113q1.74,1.2716,3.48,2.5371a2.33,2.33,0,0,1,1.086-1.5625,11.7048,11.7048,0,0,0,1.9941-2.1289C64.4082,62.9722,64.7881,60.603,63.0439,59.1519Z" fill="#fff"/><path d="M63.0439,59.1519c.9258.5976-.59-.4942,0,0Z" fill="#fff"/><path d="M92.2773,21.8379Z" fill="#fff"/><path d="M99.7344,19.6289c-.7286.7285-8.42-2.3418-8.9815-2.7646-.2891-.1163-.2988-1.3213-.7051-.8331-.4023.4883-.8095.9766-1.2148,1.4629q-.627.7588-1.2559,1.5137c-.2607.3135-.5371.457-.039.72.8379-.4189,5.4179,7.3457,5.0078,8.461-.7256.376-6.9141-5.0576-7.08-5.4151-.0527-.1464.2725-1.0214-.2109-.9453-.23.0362-.7442.8965-.89,1.0723-.2969.3574-.5918.7148-.8887,1.0723.3321.4843.5157-.0215.959.0419a13.2227,13.2227,0,0,1,2.24,1.6631c-.7256.0274-2.6866.1319-2.9346.1133-.9033.1123-.4219-.6621-1.0156-.9307q-1.14,1.3829-2.2774,2.7647c-.44.5352-.8847,1.0713-1.3252,1.6064-.0537.0655-.0468.0323.0508.1123.33.2725.1035.168.5674.0059.5068-.1777,6.56,4.9307,6.7754,5.1895.3769.45-.1543.9755.4121,1.2207q.8994-1.0914,1.7969-2.1836c.0918-.1094.1406-.1.0215-.1973-.4288-.3535-.4776.2109-1.002.1533-.5332-.0888-4.3955-3.3681-5.8955-4.61,1.82-.0674,7.291-.2705,8.1973-.3037.3007-.0108,1.1406.8964,1.0673,1.2158-.0791.3789-.4629.5586.0557.7949.4785-.5762.9834-1.1494,1.4551-1.7344h0l.2285-.2822a.7359.7359,0,0,0,.209-.2646l.168-.211c.4257-.4853,1.8007-2.0058,1.6347-2.15-.4609-.4-.6836.4658-1.2969-.0537a12.8422,12.8422,0,0,1-1.4423-2.1621c-.2647-.4492.6064-.8975.9628-1.1191.7764-.4815,3.2481-1.1827,3.4815.3486.041.2578-.27.5488-.084.7031.0449.0371.2051.2422.27.1631.1641-.1963,2.36-2.8428,3.3008-3.9687A1.3792,1.3792,0,0,0,99.7344,19.6289Zm-7.3731,2.1553c.0772-.0489.1533-.0977,0,0-.0508.0322-.0732.0478-.084.0537.0147-.0078.0469-.0293.0821-.0508a5.719,5.719,0,0,0-.959.76q-.7807-1.3447-1.5635-2.6924,1.7666.7368,3.5244,1.4814A3.7154,3.7154,0,0,0,92.3613,21.7842Z" fill="#fff"/><path d="M82.6152,32.9961a5.4819,5.4819,0,1,0,.5918,7.6A5.3775,5.3775,0,0,0,82.6152,32.9961Zm-.28,6.6133c-.0185.02-.0234.0254-.0253.0254-1.2315,1.2929-3.3565.0976-4.5059-.73-1.1455-.8281-3.1094-2.5684-1.8555-4.1035,1.0576-1.2871,3.125-.2315,4.1914.4814,1.1992.8037,3.4121,2.5967,2.2754,4.2158C82.4883,39.4082,82.542,39.3525,82.3349,39.6094Z" fill="#fff"/><path d="M82.6152,32.9961c1.1729.959-.2519-.2119,0,0Z" fill="#fff"/><path d="M82.3076,39.6367c.01-.01.0176-.02.0254-.0264.0283-.0371.0566-.0732.08-.11C82.3633,39.5615,82.3037,39.6367,82.3076,39.6367Z" fill="#fff"/><path d="M76.0234,42.1191c.1113.0938.2735.2246-.0615-.0566-2.8359-2.127-6.1934-1.5039-8.4023,1.1562q-1.4825,1.7828-2.961,3.5665c.3516.5117.7637-.1172,1.2735.1757.4355.25,6.2431,5.1011,6.3378,5.3648.1641.459-.2539.5488.1446.875a41.3729,41.3729,0,0,0,4.9365-6.189A4.3437,4.3437,0,0,0,76.0234,42.1191ZM74.706,48.8726c-.24.2968-.0429.0546-.664.65-.3076.293-6.4385-4.6752-6.1914-4.9428a4.3517,4.3517,0,0,1,3.5761-1.2989C73.6152,43.8418,76.64,46.543,74.706,48.8726Z" fill="#fff"/></g><path d="M50.58,57.477l.3388-.4091L78.4951,24.78c-6.9131.9492-11.8643,6.0771-18.6035,4.956-3.3965-.5639-3.4981-2.5136-4.47-4.456-.7461-1.4927-1.9366-1.3028-3.4864-1.91-1.4424-.5649-2.2773-1.7383-5.1621-1.061-2.5283.5928-2.8076,4.518-5.9521,4.2929-1.69-.121-1.8116-2.497-4.2442-5.539-6.3017-7.5708-12.1582-6.523-16.247.4751Z" fill="#491213"/><polygon points="46.56 70.915 50.58 64.415 54.584 70.915 50.58 77.43 46.56 70.915" fill="#23a9e1"/><path d="M23.2793,32.2651a2.81,2.81,0,0,1,.8056,2.1158c-.0586.5791-.9355,1.55-.27,1.8461q1.1207-1.4172,2.2422-2.8339c-.6025-.1509-5.3652-5.8482-5.4424-6.4722q-1.5791.8671-3.1592,1.7339c.1641.6611,1.294.0054,1.8545.0464a2.9185,2.9185,0,0,1,1.9532,1.1518c-1.7286,1.4488-5.9317,5.0171-6.3741,5.09-.2265.0361-1.0888-.6011-1.1015-.0557-.0059.2617.8525,1.0137,1.0146,1.21q1.1148,1.3257,2.23,2.6528c.6191-.2822-.11-.7319.2051-1.2432.2314-.374,4.9014-4.2666,6.042-5.2417Z" fill="#fff"/><path d="M18.0058,25.2852c.4434-.0953.6241.4335.958-.0562q-1.2231-1.46-2.4482-2.917c-.3711-.4419-.8408-.916-.706.0181.0888.63-6.1133,5.664-6.4932,5.82-.4795.1973-.7578-.417-1.1094.0972Q9.3043,29.5508,10.4,30.855c.2461.292.4765.6118.747.8818.3389.3394.2081-.6719.2237-.5849-.0908-.5127.5273-.9478.8554-1.2281A60.5,60.5,0,0,1,18.0058,25.2852Z" fill="#fff"/><path d="M9.2353,24.3682a3.2153,3.2153,0,0,1-4.207-2.042c-.543-1.835.6143-3.7574,2.0713-4.8013,1.4385-1.0317,3.5889-.97,4.373.8379a3.611,3.611,0,0,1-.0947,2.5024c-.16.5059-.5967,1,.0567,1.2886q1.289-1.6436,2.581-3.2856c-1.0557-.6333-1.5185-1.6831-2.3008-2.5953a5.8647,5.8647,0,0,0-3.4814-2.2836c-2.87-.4063-5.5742,2.5556-5.7949,5.2446a5.7529,5.7529,0,0,0,1.2461,4.001c.75.9941,1.8671,1.623,2.4345,2.7544a22.5191,22.5191,0,0,0,3.2862-1.2554,1.5534,1.5534,0,0,0-.17-.3657Z" fill="#fff"/><path d="M48.5351,60.7769c-1.15-.7676-4.0254-4.6895-4.5732-5.3409-.1074-.13-.2188-.2607-.3291-.3916a2.3021,2.3021,0,0,0-.2461.1905c-.1729.1455.1348.5732-.0518.8642-.7929,1.24-5.7578,4.9824-6.0156,5.1631-.5556.3838-1.164-.1592-1.4892.3154A45.0242,45.0242,0,0,0,38.85,65.16c.4785.0781.1475-.8145.2109-1a31.5481,31.5481,0,0,1,3.5489-3.211c.3359-.2812.6875.4258.8877.7227a1.7589,1.7589,0,0,1,.2978,1.5683c-.1162.37-.7168.92-.25,1.1739.6191-.7227,2.3613-2.7539,2.6133-3.0489.2519-.2929-.5664-.0371-.4688-.0869A.9147.9147,0,0,1,44.626,61.25c-.0957-.07-1.0889-1.082-.99-1.166a4.6276,4.6276,0,0,1,1.5176-1.1c.8623-.2129,1.582,1.5156,1.709,2.1289a3.4532,3.4532,0,0,1-.0762,1.75c-.124.3867-.4873.6963.0176.93q1.0693-1.4605,2.1318-2.92a.7.7,0,0,1-.4-.0957C48.4082,60.6919,48.6738,60.8472,48.5351,60.7769Z" fill="#fff"/><path d="M38.3115,56.646a5.478,5.478,0,1,0-7.793-1.0664,5.4155,5.4155,0,0,0,7.793,1.0664C39.4668,55.6714,38.2119,56.7163,38.3115,56.646Zm-.4648-4.7529a7.4474,7.4474,0,0,1-3.7325,3.667c-1.8183.7148-3.1-.8272-2.36-2.5528a7.4546,7.4546,0,0,1,3.7373-3.666c1.8516-.7353,3.0664.8457,2.3555,2.5518C37.4648,52.7827,37.917,51.7241,37.8467,51.8931Z" fill="#fff"/><path d="M31.8672,42.0371c.4746.06.9258.55,1.2685.042q-1.1118-1.3183-2.2275-2.6372c-.5947.269.0469.5493-.1944.9712-.2441.4267-2.5595.7807-3.1757.89a15.8979,15.8979,0,0,1,1.1572-2.8354c.5439-.4449.8828.4321,1.2832-.1407q-1.3725-1.6258-2.7432-3.2529c-.31-.3662-.5595-1.0283-.98-.68a8.4112,8.4112,0,0,1-.0889,1.733c-.0859.2358-.9355,3.6381-1.9258,4.47a21.5109,21.5109,0,0,1-2.7021,2.0966c-.541.189-.8252-.5976-1.22-.0376q1.2451,1.4789,2.4913,2.9566c.125.1484.6015.8633.7666.8931.5214.0942.0595-.8931.1132-1.086.15-.4306,2.5-2.7187,3.4971-2.8589a19.3726,19.3726,0,0,1,4.6807-.5239C32.206,42.0791,31.5156,41.9941,31.8672,42.0371Z" fill="#fff"/><path d="M25.6074,22.874c-4.043-.167-2.3516-3.9541.3945-4.8081,2.6114-.813,8.0889,1.7173,9.8428,3.398-2.7822.8549-6.3857.7319-9.4463.874-.2265-3.12-.958-2.0318-.791.5361Z" fill="#dc6243"/><path d="M26.6221,27.7241c-2.04-1.5791-1.3956-5.2661,1.7626-4.146,4.0059,2.084-.8554,3.2388-1.7626,4.146Z" fill="#dc6243"/><path d="M35.11,35.4228c-8.62-.0708-2.792-13.3217.1407-12.5209,3.373,1.0732,2.9951,12.622-.1407,12.5209Z" fill="#dc6243"/><path d="M41.2158,31.0937c-.84,2.5015-2.36,2.9683-2.1914-.07.1934-3.5029,2.4785-2.6621,4.93-4.0039,2.04-1.1191,3.1387-5.2139,6.6406-2.7651,1.5625,1.0932,3.3525.1792,3.8516,1.833-.0254-.084-4.545,10.3081-2.0313,10.3081-4.9609,0-2.7724-5.9219-.874-9.8989-1.8467.8847-4.8418,6.688-2.3818,7.643-1.2813,1.6861-5.1944,3.9449-7.2344,2.2979-1.5518-1.249-.6914-3.3252-.709-5.3443Z" fill="#dc6243"/><path d="M45.32,40.6968c-3.4893,1.0464-8.1221-1.2066-2.51-2.34,3.4825-.7041,7.1866.7779,2.51,2.34C45.4609,40.6548,45.1924,40.74,45.32,40.6968Z" fill="#dc6243"/><path d="M49.69,40.5561c-.7363-1.6582.5615-3.6352,2.68-2.1992,1.8467,1.252-.8506,3.106-2.68,2.1992Z" fill="#dc6243"/><path d="M46.7441,45.2241c-2.4111-.7471-10.5371-.561-5.2178-2.7641,1.64-.6788,10.1543.0981,5.2178,2.7641Z" fill="#dc6243"/><path d="M49.959,44.8711c-.0069-.96-.5118-2.6792,1.3545-1.9463,2.2343.8794-1.3545,2.6514-1.3545,1.9463Z" fill="#dc6243"/><path d="M57.1777,48.5381c-1.4365-1.2271-2.8906-1.2949-4.2285,0-1.7949-3.293-8.3184-2.19-11.3662-2.6509,1.6387,4.0283,14.8642,4.78,15.5947,2.6509Z" fill="#dc6243"/><path d="M55.2754,50.9624c-3.1514-.1465-6.6709-.5635-9.6465.084,1.86.4658,6.3965,1.7949,2.1719,2.918,1.5156,2.1679,3.9736,2.0292,5.5839.1269a15.4447,15.4447,0,0,1-1.5517-1.0566c1.6719-.3037,3.2344-1.2676,3.4424-2.0723Z" fill="#dc6243"/><path d="M58.8711,47.085c-5.2881-3.1119-3.95-5.4268.3545-7.586,2.2539-1.1308,7.3232-5.208,9.4463-3.85q-4.9014,5.718-9.8008,11.4361Z" fill="#dc6243"/><path d="M55.1064,39.8091c-4.48-4.6011,6.6885-4.1782,8.4864-5.7959,1.3115.437,10.7685-8.2832,13.0712-7.7412-1.6552,1.9409-5.22,8.1362-7.7744,8.1362-1.9648,0-3.95-.292-5.4726,1.1069-2.2237,2.0479-5.9082,3.09-8.3106,4.294Z" fill="#f49774"/><path d="M56.5732,34.1831c-2.4531,1.3189-4.7724-3.9072-.5371-3.3979,2.8135.3378,5.6621-.2374,8.3477.2255a8.6632,8.6632,0,0,1-7.8106,3.1724Z" fill="#f4b1a4"/><path d="M69.2051,52.4663a4.9659,4.9659,0,0,1,.2148,2.0088c-.1064.873-.9785,2.9248-2.1728,2.34A18.225,18.225,0,0,1,64.06,54.2632c.8017-.9356,1.5068-1.749,2.8535-1.2949.37.123.6884-.0362.2988-.2618-.4043-.2343-3.1133-1.9648-3.2607-1.7988-.2706.3106.5283.8672.2207,1.4727a7,7,0,0,1-.9317,1.2187c-.72-.6074-1.9228-1.2529-1.0566-2.2558a3.6859,3.6859,0,0,1,2.0976-1.3418c.5655-.1143,1.8409.3886,2.0059-.2246q-1.63-.7822-3.2578-1.565c.1767.7993-3.3487,4.5249-4.1309,5.4634-.1133.1377-.6582.6094-.664.7978-.0088.4288.622.0967.6572.084.4853-.1806,6.8154,5.1084,6.9726,5.4707.1.2813-.2207.5742-.0293.7315-.0107-.01.2286.2168.253.1845.3916-.4677,4.5224-5.9755,5.374-6.2168-.7939-1.2148-1.5879-2.4306-2.3682-3.6513C68.5039,51.3335,69.0752,52.0239,69.2051,52.4663Z" fill="#fff"/><path d="M63.0439,59.1694c-2.0771-1.34-5.5957,1.2793-6.125,1.5313-1.039.4912-1.789-.543-1.2509-1.502a2.7733,2.7733,0,0,1,2.31-1.289c.2764-.0176,1.35.1972,1.459.0254.13-.2022.2275-.2207.042-.3457q-1.2848-.8673-2.5674-1.7334c-.1758,1.0556-1.3848,1.7275-2.0762,2.44a4.7046,4.7046,0,0,0-1.52,3.1562,3.029,3.029,0,0,0,1.6767,2.66,3.3091,3.3091,0,0,0,3.3243-.5108,19.1815,19.1815,0,0,1,1.9238-1.1709c.9961-.4667,2.3037-.0625,1.9531,1.27a3.5958,3.5958,0,0,1-2.4053,2.34,3.2888,3.2888,0,0,1-1.872-.09c-.4317-.1416-.9932-.7344-1.23-.1113q1.7416,1.27,3.4814,2.5371a2.3338,2.3338,0,0,1,1.086-1.5635,11.6813,11.6813,0,0,0,1.9941-2.13C64.4082,62.99,64.7871,60.6206,63.0439,59.1694Z" fill="#fff"/><path d="M63.0439,59.1694c.9248.5977-.5908-.4941,0,0Z" fill="#fff"/><path d="M92.2773,21.855Z" fill="#fff"/><path d="M99.7353,19.645c-.73.729-8.42-2.3408-8.9824-2.7641-.29-.1158-.3-1.3208-.7051-.8331q-.605.7325-1.2158,1.4629-.627.7581-1.2558,1.5132c-.26.314-.5372.458-.0381.72.8369-.4189,5.417,7.3457,5.0078,8.461-.7246.376-6.9151-5.0572-7.0811-5.4151-.0517-.146.2735-1.021-.2109-.9448-.2285.0357-.7432.896-.8887,1.0718-.2969.3569-.5918.7148-.8887,1.0723.3321.4848.5166-.0215.959.0419a13.1467,13.1467,0,0,1,2.24,1.6636c-.7246.0274-2.6846.1314-2.9336.1133-.9034.1118-.4219-.6631-1.0147-.9311q-1.14,1.3827-2.2773,2.7641-.6621.8035-1.3262,1.6069c-.0537.065-.0469.0318.05.1119.33.2729.1045.1679.5684.0063.5058-.1772,6.5586,4.9307,6.7763,5.19.377.45-.1543.9751.4112,1.2208q.8994-1.0921,1.7978-2.1841c.0908-.11.1406-.1.02-.1978-.4267-.353-.4756.2119-1.0019.1538-.5332-.0888-4.3946-3.3686-5.8946-4.61,1.8213-.0679,7.2911-.271,8.1983-.3042.3008-.0108,1.14.8964,1.0683,1.2163-.081.3779-.4628.5581.0538.7939.4794-.5752.9853-1.1489,1.456-1.7339h0l.2276-.2822a.7433.7433,0,0,0,.21-.2646l.168-.2115c.4248-.4848,1.8-2.0058,1.6347-2.15-.4609-.4-.6845.4658-1.2978-.0537a12.902,12.902,0,0,1-1.4434-2.1621c-.2636-.4492.6084-.897.9639-1.1191.7764-.482,3.2471-1.1831,3.4824.3481.04.2578-.2715.55-.084.7041.044.0366.2041.2417.27.1626.1631-.1968,2.3613-2.8428,3.3008-3.9687A1.4709,1.4709,0,0,0,99.7353,19.645Zm-7.374,2.1558c.0772-.0488.1533-.0977,0,0-.0508.0322-.0742.0473-.084.0542.0137-.0078.0469-.03.0821-.0518a5.7131,5.7131,0,0,0-.9581.7608q-.7821-1.3455-1.5644-2.6929,1.7666.736,3.5244,1.4809A3.7339,3.7339,0,0,0,92.3613,21.8008Z" fill="#fff"/><path d="M82.6162,33.0122a5.4824,5.4824,0,1,0,.5908,7.6006A5.3775,5.3775,0,0,0,82.6162,33.0122Zm-.2813,6.6138-.0253.0268c-1.2325,1.292-3.3584.0962-4.5059-.7309-1.1455-.8291-3.11-2.57-1.8555-4.104,1.0557-1.2867,3.124-.231,4.1914.4819,1.1992.8032,3.4112,2.5962,2.2754,4.2163C82.4892,39.4258,82.541,39.3682,82.3349,39.626Z" fill="#fff"/><path d="M82.6162,33.0122c1.1709.959-.2529-.2114,0,0Z" fill="#fff"/><path d="M82.3076,39.6528l.0254-.0268a1.3156,1.3156,0,0,0,.08-.11A1.6368,1.6368,0,0,0,82.3076,39.6528Z" fill="#fff"/><path d="M76.0244,42.1357c.1113.0943.2725.2242-.0635-.0566-2.8349-2.127-6.1933-1.5039-8.4013,1.1567q-1.4825,1.7835-2.961,3.5674c.3506.5117.7627-.1181,1.2725.1758.4365.25,6.2441,5.1006,6.3388,5.3662.1641.458-.2548.5479.1446.875a41.3937,41.3937,0,0,0,4.9345-6.1914A4.3415,4.3415,0,0,0,76.0244,42.1357ZM74.706,48.89c-.24.2959-.0439.0537-.665.65-.3057.293-6.4375-4.6753-6.1914-4.9443a4.3483,4.3483,0,0,1,3.5762-1.2974C73.6162,43.8589,76.64,46.5591,74.706,48.89Z" fill="#fff"/></g></svg>