<svg xmlns="http://www.w3.org/2000/svg" viewBox="0 0 186.6426 96.4258"><title>logo</title><g id="Layer_2" data-name="Layer 2"><path d="M186.6426,0H0L80.4863,90.4741a16.8154,16.8154,0,0,0,25.67,0Z" fill="#81b3d3"/><polygon points="43.242 0.721 92.765 59.071 142.089 1.074 43.242 0.721" fill="#23a9e1"/><path d="M122.0225,17.332q-7.5924.0418-15.1866.084c6.001-6.9311,8.6973-6.19,15.1866-.084Z" fill="#fff"/><path d="M80.8486,22.69h26.68c-1.9853-1.2329-6.708-7.059-9.3076-4.893-.2119.1782-7.5049-8.8477-12.2959-4.4991-4.1787,3.7994-6.12-.498-10.8574,2.5113-5.3984,3.57,3.12,5.6748,5.7812,6.8808Z" fill="#fff"/><path d="M93.1035.0161h-50.92V22.479L92.7647,84.0015l.3388-.4239,50.7481-60.3935V.0161ZM54.8994,1.793h5.4619V18.9839l-5.4619-6.4888Zm-.7832,9.77L49.1455,5.6592V1.793h4.9707ZM73.42,8.855,67.6807,1.793H73.42Zm-6.6416,3.8281L61.18,1.793h5.5986ZM61.1455,3.44,66.669,14.1841a58.16,58.16,0,0,0-5.5235,4.854Zm6.416-.5507,5.6075,6.9c-1.1172.6469-2.1573,1.3-3.1,1.9321-.8906.5976-1.7246,1.1958-2.5078,1.7827Zm6.6426-.1973L78.9688,6.915a48.5593,48.5593,0,0,0-4.7647,2.293ZM79.7774,6.585,74.3711,1.793H80.33V6.376C80.1455,6.4458,79.96,6.5142,79.7774,6.585ZM98.8965,1.793h4.99l-4.99,2.4389Zm-5.791,0h4.4394L93.1055,3.8481ZM92.167,3.7559,87.9258,1.793H92.167Zm-5.4912.5263L81.584,1.793h5.0918ZM81.1123,2.4351,85.835,4.7432A38.6825,38.6825,0,0,0,81.1123,6.09ZM87.459,2.44l3.4648,1.604a32.0057,32.0057,0,0,0-3.4648.39Zm10.4238.06V4.44a33.1473,33.1473,0,0,0-3.3564-.3881Zm6.4746-.0649V6.1357A39.9963,39.9963,0,0,0,99.582,4.77Zm.7842-.6421h5.9443l-5.4345,4.8178c-.168-.0649-.3408-.125-.5108-.188V1.793Zm13.55,0H124.29l-5.5987,10.8759Zm-6.6406,0H117.79l-5.7393,7.0078Zm-.7832.8872V9.2119a50.834,50.834,0,0,0-4.8057-2.272Zm6.6416.2036V13.3882c-.7129-.5142-1.4629-1.0362-2.2559-1.5581-1.0234-.6753-2.1562-1.374-3.3808-2.065Zm6.416.5522V18.6768a63.2015,63.2015,0,0,0-5.4785-4.6Zm.7822,16.0039V1.793H130.57V13.1982l-5.3926,6.3125C125.1592,19.4912,125.1358,19.4668,125.1074,19.44ZM131.3545,1.793h4.97V6.4609l-4.97,5.8179Zm-82.9922,0V4.729L45.8916,1.793ZM61.249,20.0371l.1407.13a56.7953,56.7953,0,0,1,9.2148-7.648C75.791,9.04,83.84,4.9038,92.7608,4.9531c8.9.043,17.0634,4.1929,22.3457,7.667a60.1573,60.1573,0,0,1,9.4462,7.625l-3.875,4.5361c-6.9121.9488-11.8632,6.0767-18.6035,4.9556-3.3955-.564-3.498-2.5137-4.4687-4.4556-.7461-1.4931-1.9365-1.3032-3.4873-1.91-1.4424-.565-2.2774-1.7383-5.1621-1.061-2.5284.5927-2.8067,4.518-5.9522,4.2929-1.6894-.1211-1.8105-2.497-4.2441-5.539-6.3018-7.5708-12.1582-6.523-16.2471.4751L92.7637,57.477ZM137.1074,5.543V1.793h3.2032Z" fill="#491213"/><polygon points="88.745 70.915 92.765 64.415 96.769 70.915 92.765 77.43 88.745 70.915" fill="#23a9e1"/><path d="M65.4639,32.2651a2.81,2.81,0,0,1,.8056,2.1158c-.0586.5791-.9355,1.55-.2695,1.8461q1.1207-1.4172,2.2422-2.8339c-.6016-.1509-5.3652-5.8482-5.4424-6.4722q-1.579.8671-3.1592,1.7339c.1641.6611,1.294.0054,1.8545.0464a2.9185,2.9185,0,0,1,1.9532,1.1518c-1.7276,1.4488-5.9307,5.0171-6.3741,5.09-.2256.0361-1.0879-.6011-1.1006-.0557-.0058.2617.8516,1.0137,1.0147,1.21q1.1148,1.3257,2.2285,2.6528c.6191-.2822-.11-.7319.2051-1.2432.2314-.374,4.9014-4.2666,6.042-5.2417Z" fill="#fff"/><path d="M60.19,25.2852c.4434-.0953.6241.4335.958-.0562q-1.2246-1.46-2.4492-2.917c-.3711-.4419-.84-.916-.706.0181.0888.63-6.1133,5.664-6.4932,5.82-.4785.1973-.7578-.417-1.1094.0972q1.0973,1.3037,2.1934,2.6079c.2461.292.4766.6118.7471.8818.3388.3394.208-.6719.2236-.5849-.0908-.5127.5273-.9478.8555-1.2281A60.5991,60.5991,0,0,1,60.19,25.2852Z" fill="#fff"/><path d="M51.42,24.3682a3.2157,3.2157,0,0,1-4.207-2.042c-.543-1.835.6143-3.7574,2.0713-4.8013,1.4394-1.0317,3.5889-.97,4.373.8379a3.6115,3.6115,0,0,1-.0937,2.5024c-.16.5059-.5967,1,.0557,1.2886Q54.91,20.51,56.2,18.8682c-1.0547-.6333-1.5176-1.6831-2.3-2.5953a5.867,5.867,0,0,0-3.4824-2.2836c-2.87-.4063-5.5742,2.5556-5.7949,5.2446a5.7577,5.7577,0,0,0,1.2461,4.001c.75.9941,1.8681,1.623,2.4345,2.7544A22.5191,22.5191,0,0,0,51.59,24.7339a1.5534,1.5534,0,0,0-.17-.3657Z" fill="#fff"/><path d="M90.72,60.7769c-1.15-.7676-4.0254-4.6895-4.5732-5.3409-.1084-.13-.2188-.2607-.3291-.3916a2.2061,2.2061,0,0,0-.2461.1914c-.1729.1446.1338.5733-.0518.8643-.7929,1.2412-5.7578,4.9834-6.0156,5.1631-.5556.3838-1.164-.1592-1.4892.3164a45.4336,45.4336,0,0,0,3.0185,3.582c.48.0781.1485-.8154.211-1a31.5464,31.5464,0,0,1,3.5488-3.2109c.3359-.2813.6875.4258.8877.7226a1.7621,1.7621,0,0,1,.2978,1.5684c-.1162.37-.7168.92-.25,1.1738.6192-.7226,2.3614-2.7539,2.6133-3.0488.252-.293-.5664-.0371-.4687-.0869a.9136.9136,0,0,1-1.0635-.0283c-.0957-.0713-1.0889-1.0821-.99-1.1661a4.6124,4.6124,0,0,1,1.5166-1.1c.8624-.2129,1.5821,1.5157,1.709,2.1289a3.4541,3.4541,0,0,1-.0761,1.75c-.1241.3868-.4873.6963.0175.93q1.068-1.46,2.1309-2.92a.713.713,0,0,1-.3975-.0976C90.5928,60.6919,90.8584,60.8472,90.72,60.7769Z" fill="#fff"/><path d="M80.4961,56.646a5.478,5.478,0,1,0-7.793-1.0664,5.4155,5.4155,0,0,0,7.793,1.0664C81.6514,55.6714,80.3965,56.7163,80.4961,56.646Zm-.4648-4.7529a7.4474,7.4474,0,0,1-3.7325,3.667c-1.8183.7148-3.1-.8272-2.36-2.5528a7.4546,7.4546,0,0,1,3.7373-3.666c1.8516-.7353,3.0664.8457,2.3555,2.5518C79.6494,52.7827,80.1016,51.7241,80.0313,51.8931Z" fill="#fff"/><path d="M74.0518,42.0371c.4746.06.9258.55,1.2685.042q-1.1133-1.3183-2.2275-2.6372c-.5947.269.0469.5493-.1944.9712-.2441.4267-2.5595.7807-3.1757.89A15.8236,15.8236,0,0,1,70.88,38.4678c.5439-.4449.8828.4321,1.2832-.1407q-1.3725-1.6258-2.7432-3.2529c-.3095-.3662-.5586-1.0283-.98-.68a8.4112,8.4112,0,0,1-.0889,1.733c-.0859.2358-.9355,3.6381-1.9258,4.47a21.5109,21.5109,0,0,1-2.7021,2.0966c-.541.189-.8252-.5976-1.22-.0376q1.2452,1.4789,2.4913,2.9566c.125.1484.6015.8633.7666.8931.5214.0942.0595-.8931.1132-1.086.1514-.4306,2.5-2.7187,3.4971-2.8589a19.3726,19.3726,0,0,1,4.6807-.5239C74.3906,42.0791,73.7,41.9941,74.0518,42.0371Z" fill="#fff"/><path d="M67.792,22.874c-4.043-.167-2.3506-3.9541.3945-4.8081,2.6114-.813,8.0889,1.7173,9.8428,3.398-2.7832.8549-6.3857.7319-9.4473.874-.2255-3.12-.957-2.0318-.79.5361Z" fill="#dc6243"/><path d="M77.2949,35.4228c-8.62-.0708-2.792-13.3217.1407-12.5209,3.373,1.0732,2.9951,12.622-.1407,12.5209Z" fill="#dc6243"/><path d="M83.4,31.0937c-.84,2.5015-2.3613,2.9683-2.1924-.07.1944-3.5029,2.4785-2.6621,4.93-4.0039,2.04-1.1191,3.1387-5.2139,6.6406-2.7651,1.5616,1.0932,3.3516.1792,3.8506,1.833-.0254-.084-4.5449,10.3081-2.0312,10.3081-4.961,0-2.7735-5.9219-.8741-9.8989-1.8466.8847-4.8418,6.688-2.3818,7.643-1.2812,1.6861-5.1943,3.9449-7.2344,2.2979-1.55-1.249-.6894-3.3252-.707-5.3443Z" fill="#dc6243"/><path d="M87.5049,40.6968c-3.4893,1.0464-8.1221-1.2066-2.51-2.34,3.4825-.7041,7.1866.7779,2.51,2.34C87.6455,40.6548,87.377,40.74,87.5049,40.6968Z" fill="#dc6243"/><path d="M91.875,40.5561c-.7363-1.6582.5615-3.6352,2.68-2.1992,1.8467,1.252-.8506,3.106-2.68,2.1992Z" fill="#dc6243"/><path d="M88.9287,45.2241c-2.4111-.7471-10.5371-.561-5.2178-2.7641,1.64-.6788,10.1543.0981,5.2178,2.7641Z" fill="#dc6243"/><path d="M99.3623,48.5381c-1.4365-1.2271-2.8906-1.2949-4.23,0-1.7949-3.293-8.3183-2.19-11.3662-2.6509,1.64,4.0283,14.8652,4.78,15.5957,2.6509Z" fill="#dc6243"/><path d="M97.46,50.9624c-3.1514-.1465-6.6709-.5635-9.6465.084,1.86.4658,6.3955,1.7949,2.1719,2.918,1.5146,2.1679,3.9726,2.0292,5.5839.1269a15.3311,15.3311,0,0,1-1.5517-1.0566c1.6719-.3037,3.2344-1.2676,3.4424-2.0723Z" fill="#dc6243"/><path d="M101.0557,47.085c-5.2881-3.1119-3.95-5.4268.3535-7.586,2.2539-1.1308,7.3242-5.208,9.4473-3.85q-4.9014,5.718-9.8008,11.4361Z" fill="#dc6243"/><path d="M97.291,39.8091c-4.48-4.6011,6.69-4.1782,8.4873-5.7959,1.3106.437,10.7676-8.2832,13.0713-7.7412-1.6553,1.9409-5.22,8.1362-7.7754,8.1362-1.9638,0-3.95-.292-5.4716,1.1069-2.2247,2.0479-5.9092,3.09-8.3116,4.294Z" fill="#f49774"/><path d="M98.7578,34.1831c-2.4531,1.3189-4.7724-3.9072-.5371-3.3979,2.8135.3378,5.6621-.2374,8.3477.2255a8.6632,8.6632,0,0,1-7.8106,3.1724Z" fill="#f4b1a4"/><path d="M111.39,52.4663a4.9659,4.9659,0,0,1,.2148,2.0088c-.1074.873-.9785,2.9248-2.1728,2.34a18.225,18.225,0,0,1-3.1875-2.5517c.8017-.9356,1.5068-1.749,2.8535-1.2949.37.123.6884-.0362.2988-.2618-.4053-.2343-3.1143-1.9648-3.2607-1.7988-.2706.3106.5283.8682.2207,1.4727a7.05,7.05,0,0,1-.9317,1.2187c-.72-.6074-1.9228-1.2529-1.0566-2.2558a3.6859,3.6859,0,0,1,2.0976-1.3418c.5655-.1143,1.8409.3886,2.0059-.2237q-1.63-.7836-3.2578-1.5649c.1767.7993-3.3487,4.5249-4.1309,5.4643-.1133.1368-.6582.6094-.664.7969-.0088.4287.622.0967.6572.084.4863-.18,6.8164,5.1094,6.9726,5.4707.1.2813-.2207.5742-.0293.7324-.0107-.01.2276.2158.253.1836.3906-.4678,4.5224-5.9746,5.374-6.2168-.7939-1.2148-1.5879-2.43-2.3682-3.6523C110.6885,51.3335,111.26,52.0239,111.39,52.4663Z" fill="#fff"/><path d="M105.2285,59.1694c-2.0771-1.34-5.5957,1.2793-6.125,1.5313-1.039.4922-1.789-.543-1.2509-1.502a2.7716,2.7716,0,0,1,2.31-1.289c.2774-.0166,1.35.1982,1.459.0263.13-.2021.2275-.22.042-.3447q-1.2846-.8686-2.5674-1.7344c-.1758,1.0547-1.3848,1.7266-2.0762,2.4414A4.6984,4.6984,0,0,0,95.5,61.4546a3.03,3.03,0,0,0,1.6768,2.66,3.3089,3.3089,0,0,0,3.3242-.5107,19.1815,19.1815,0,0,1,1.9238-1.1709c.9961-.4668,2.3037-.0625,1.9531,1.2695a3.5959,3.5959,0,0,1-2.4052,2.34,3.2891,3.2891,0,0,1-1.8721-.09c-.4316-.1416-.9932-.7343-1.2305-.1113q1.7418,1.2685,3.4825,2.5371a2.3343,2.3343,0,0,1,1.0859-1.5644,11.681,11.681,0,0,0,1.9941-2.13C106.5928,62.99,106.9717,60.6206,105.2285,59.1694Z" fill="#fff"/><path d="M105.2285,59.1694c.9248.5977-.5908-.4941,0,0Z" fill="#fff"/><path d="M134.4619,21.855Z" fill="#fff"/><path d="M141.92,19.645c-.73.729-8.42-2.3408-8.9824-2.7641-.29-.1158-.3-1.3208-.7051-.8331s-.81.9761-1.2158,1.4629q-.627.7581-1.2558,1.5132c-.26.314-.5372.458-.0381.72.8369-.4189,5.417,7.3457,5.0078,8.461-.7246.376-6.9151-5.0572-7.0811-5.4151-.0517-.146.2735-1.021-.2109-.9448-.2285.0357-.7432.896-.8887,1.0718-.2969.3569-.5918.7148-.8887,1.0723.3321.4848.5166-.0215.959.0419a13.1868,13.1868,0,0,1,2.2412,1.6636c-.7246.0274-2.6845.1314-2.9336.1133-.9033.1118-.4218-.6631-1.0146-.9311q-1.1382,1.3827-2.2773,2.7641-.6623.8035-1.3262,1.6069c-.0537.065-.0469.0318.05.1119.33.2729.1045.1679.5683.0063.5059-.1772,6.5586,4.9307,6.7764,5.19.377.45-.1543.9751.4111,1.2208q.9-1.0921,1.7979-2.1841c.0908-.11.1406-.1.0205-.1978-.4268-.353-.4756.2119-1.0019.1538-.5333-.0888-4.3946-3.3686-5.8946-4.61,1.8223-.0679,7.291-.271,8.1992-.3042.3-.0108,1.1387.8964,1.0684,1.2163-.0811.3779-.4629.5581.0537.7939.48-.5752.9854-1.1489,1.4561-1.7339h0l.2265-.2822a.7434.7434,0,0,0,.21-.2646l.168-.2115c.4248-.4848,1.8-2.0058,1.6347-2.15-.4609-.4-.6845.4658-1.2978-.0537a12.902,12.902,0,0,1-1.4434-2.1621c-.2637-.4492.6084-.897.9639-1.1191.7763-.482,3.247-1.1831,3.4824.3481.04.2578-.27.55-.084.7041.044.0366.2041.2417.2695.1626.1631-.1968,2.3614-2.8428,3.3-3.9687A1.4709,1.4709,0,0,0,141.92,19.645Zm-7.374,2.1558c.0772-.0488.1533-.0977,0,0-.0508.0322-.0742.0473-.084.0542.0137-.0078.0469-.03.0821-.0518a5.7131,5.7131,0,0,0-.9581.7608q-.7821-1.3455-1.5644-2.6929,1.7652.736,3.5244,1.4809A3.7339,3.7339,0,0,0,134.5459,21.8008Z" fill="#fff"/><path d="M124.8008,33.0122a5.482,5.482,0,1,0,.5918,7.6006A5.3775,5.3775,0,0,0,124.8008,33.0122ZM124.52,39.626a.2232.2232,0,0,1-.0263.0268c-1.2324,1.292-3.3584.0962-4.5049-.7309-1.1465-.8291-3.1113-2.57-1.8565-4.104,1.0557-1.2867,3.1241-.231,4.1915.4819,1.2.8032,3.4121,2.5962,2.2763,4.2163C124.6738,39.4258,124.7256,39.3682,124.52,39.626Z" fill="#fff"/><path d="M124.8008,33.0122c1.1709.959-.2529-.2114,0,0Z" fill="#fff"/><path d="M124.4922,39.6528c.0088-.01.0176-.018.0264-.0268.0293-.0371.0556-.0728.08-.11A1.5369,1.5369,0,0,0,124.4922,39.6528Z" fill="#fff"/><path d="M118.209,42.1357c.1123.0943.2734.2242-.0635-.0566-2.8349-2.127-6.1943-1.5039-8.4023,1.1567q-1.4824,1.7835-2.961,3.5674c.3506.5117.7627-.1181,1.2735.1758.4355.25,6.2441,5.1006,6.3388,5.3662.1641.458-.2548.5479.1436.875a41.3936,41.3936,0,0,0,4.9346-6.1914A4.34,4.34,0,0,0,118.209,42.1357ZM116.8906,48.89c-.24.2959-.0439.0537-.665.65-.3057.293-6.4375-4.6753-6.1924-4.9443a4.35,4.35,0,0,1,3.5772-1.2974C115.8008,43.8589,118.8242,46.5591,116.8906,48.89Z" fill="#fff"/></g></svg>
