<svg id="Layer_1" data-name="Layer 1" xmlns="http://www.w3.org/2000/svg" viewBox="0 0 18 18"><title>phone-icon</title><g id="Page-1"><g id="Icons-Communication"><g id="phone"><path id="Shape" d="M3.6,7.8A15.5686,15.5686,0,0,0,10.2,14.4l2.2-2.2a.7961.7961,0,0,1,1-.2,10.4475,10.4475,0,0,0,3.6.6.9452.9452,0,0,1,1,1V17a.9452.9452,0,0,1-1,1A16.9855,16.9855,0,0,1,0,1,.9447.9447,0,0,1,1,0H4.5a.9447.9447,0,0,1,1,1,11.3286,11.3286,0,0,0,.6,3.6,1.2309,1.2309,0,0,1-.2,1L3.6,7.8Z" fill="#010101"/></g></g></g></svg>
