<svg xmlns="http://www.w3.org/2000/svg" viewBox="0 0 459.7539 79.8046"><path d="M44.4658,21.7378A20.4557,20.4557,0,0,0,31.564,16.7749c-3.5718,0-8.3379,2.0839-8.3379,6.2529,0,4.3682,5.2607,6.0552,8.6357,7.146l4.9644,1.4892C47.2481,34.74,55.2871,40,55.2871,52.11c0,7.4453-1.7871,15.0879-7.7422,20.1494-5.8549,4.9639-13.6967,7.0479-21.24,7.0479A46.184,46.184,0,0,1,0,70.7705L8.3379,55.0879C13.2031,59.3564,18.959,62.83,25.6089,62.83c4.5659,0,9.43-2.2832,9.43-7.5449,0-5.459-7.6431-7.3447-11.812-8.5351-12.208-3.4756-20.249-6.65-20.249-21.1431C2.9781,10.4189,13.7959.4951,28.7852.4951A51.1914,51.1914,0,0,1,52.211,6.6489Z"/><path d="M91.8311,18.9589V31.4648h21.937V47.9443H91.8311V60.8437H114.958v16.48H72.376V2.4829h42.582V18.96H91.8311Z"/><path d="M129.417,2.4819h27.5943c20.8437,0,38.0156,16.3769,38.0156,37.4194s-17.271,37.42-38.0156,37.42H129.417Zm19.4551,58.3638h4.3672c11.6118,0,21.5386-6.3516,21.5386-20.9424,0-13.4-8.834-20.9434-21.3409-20.9434h-4.5649Z"/><path d="M286.8731,38.5127c0,24.2187-17.3711,41.2919-41.3936,41.2919-24.0195,0-41.3906-17.0712-41.3906-41.2919C204.0889,15.8808,223.9409,0,245.48,0S286.8731,15.8808,286.8731,38.5127Zm-62.5342.0991c0,12.9048,9.5293,22.3325,21.1406,22.3325,11.6133,0,21.1436-9.43,21.1436-22.3325,0-10.3228-9.5264-19.752-21.1436-19.752C233.8672,18.86,224.3389,28.29,224.3389,38.6118Z"/><path d="M297.2383,2.4819h19.4541l35.6357,45.7573h.1963V2.4819h19.4532V77.3213H352.5244L316.89,31.4648h-.1973V77.3213H297.2383Z"/><path d="M407.3448,64.3193l-5.16,13.002H381.5391L410.3242,2.4819h21.2422l28.1875,74.8394H439.0088l-4.8623-13.002Zm13.6-38.71h-.1992l-8.039,23.8238h16.1777Z"/></svg>
