<svg id="Layer_1" data-name="Layer 1" xmlns="http://www.w3.org/2000/svg" viewBox="0 0 32 20"><title>subtitles-icon</title><path d="M29,0H3A3.0083,3.0083,0,0,0,0,3V17a3.0083,3.0083,0,0,0,3,3H29a3.0083,3.0083,0,0,0,3-3V3A3.0083,3.0083,0,0,0,29,0ZM14.4033,15.8545a8.5813,8.5813,0,0,1-1.6777.164,5.9875,5.9875,0,0,1-1.9756-.3232,4.21,4.21,0,0,1-1.6455-1.041,5.1322,5.1322,0,0,1-1.1328-1.8682A8.1213,8.1213,0,0,1,7.5508,10a7.5552,7.5552,0,0,1,.4707-2.8506A5.2016,5.2016,0,0,1,9.2451,5.2959a4.53,4.53,0,0,1,1.6787-1.0078,5.8587,5.8587,0,0,1,1.8516-.3067,8.9716,8.9716,0,0,1,1.6777.1338,6.066,6.066,0,0,1,1.1328.3135L15.14,6.3467a3.3118,3.3118,0,0,0-.9023-.2647A8.2735,8.2735,0,0,0,12.9727,6a2.7574,2.7574,0,0,0-2.2061.9765,4.5919,4.5919,0,0,0-.8359,3.0313A6.2746,6.2746,0,0,0,10.13,11.64a3.5146,3.5146,0,0,0,.6025,1.26,2.7754,2.7754,0,0,0,1.01.8115,3.1855,3.1855,0,0,0,1.3965.29,4.5524,4.5524,0,0,0,1.2568-.1485,3.7053,3.7053,0,0,0,.8926-.38l.4629,1.8409A3.4811,3.4811,0,0,1,14.4033,15.8545Zm8.6973,0a8.5889,8.5889,0,0,1-1.6777.164,5.987,5.987,0,0,1-1.9756-.3232,4.2089,4.2089,0,0,1-1.6455-1.041,5.1323,5.1323,0,0,1-1.1329-1.8682A8.1237,8.1237,0,0,1,16.248,10a7.5572,7.5572,0,0,1,.4707-2.8506,5.2014,5.2014,0,0,1,1.2227-1.8535,4.5263,4.5263,0,0,1,1.68-1.0078,5.8573,5.8573,0,0,1,1.8506-.3067,8.9566,8.9566,0,0,1,1.6777.1338,6.0244,6.0244,0,0,1,1.1328.3135l-.4463,1.918a3.2947,3.2947,0,0,0-.9013-.2647A8.2832,8.2832,0,0,0,21.67,6a2.7573,2.7573,0,0,0-2.206.9765,4.5913,4.5913,0,0,0-.836,3.0313,6.2789,6.2789,0,0,0,.1992,1.6318,3.5147,3.5147,0,0,0,.6026,1.26,2.7721,2.7721,0,0,0,1.0088.8115,3.1883,3.1883,0,0,0,1.3965.29,4.548,4.548,0,0,0,1.2568-.1485,3.7151,3.7151,0,0,0,.8936-.38l.4628,1.8409A3.48,3.48,0,0,1,23.1006,15.8545Z" fill="#444545"/></svg>