<svg id="Layer_1" data-name="Layer 1" xmlns="http://www.w3.org/2000/svg" viewBox="0 0 17.5 14.6619"><title>twitter-icon</title><g id="W6EeEF"><path d="M11.2832.1528a3.289,3.289,0,0,1,3.6846,1.15c.6943-.2251,1.372-.47,2.0722-.69a2.2585,2.2585,0,0,1-.8828,1.7281A1.64,1.64,0,0,0,17.5,1.86a2.8954,2.8954,0,0,1-1.6113,1.9771C15.65,10.4292,12.6172,14.7924,5.5068,14.66h-.46C4.625,14.66.7568,14.21,0,12.8169a6.5743,6.5743,0,0,0,4.835-1.1495c-.9888-.2929-2.7608-.4648-3.07-2.8808a2.1357,2.1357,0,0,0,1.2281.1162C1.7568,8.0669.3848,7.3662.4609,5.2177a2.0346,2.0346,0,0,0,1.3809.4615C1.1172,5.4438-.188,2.3979.9209.8427,2.7939,2.6547,4.769,4.3642,8.29,4.5278,8.5059,2.288,9.4609.788,11.2832.1528Z" transform="translate(0 -0.0006)"/></g></svg>
